<svg width="500" height="186" version="1.1" xmlns="http://www.w3.org/2000/svg" desc="Created with imagetracer.js version 1.2.6" ><path fill="rgb(46,44,47)" stroke="rgb(46,44,47)" stroke-width="1" opacity="1" d="M 137 0 L 141 0.5 L 138 2.5 L 136.5 5 L 137 1.5 L 137 0 Z " /><path fill="rgb(46,44,47)" stroke="rgb(46,44,47)" stroke-width="1" opacity="1" d="M 304.5 0 L 306 0.5 L 304 4.5 L 301.5 8 Q 298.5 6.5 301.5 5 Q 304.5 5.9 303 1.5 L 304.5 0 Z " /><path fill="rgb(46,44,47)" stroke="rgb(46,44,47)" stroke-width="1" opacity="1" d="M 470 0 L 472 0.5 L 469.5 4 L 470 2.5 L 470 0 Z " /><path fill="rgb(46,44,47)" stroke="rgb(46,44,47)" stroke-width="1" opacity="1" d="M 467 5 Q 470.8 3.5 470 6.5 L 469 11.5 L 471.5 16 Q 473 13.5 474.5 17 L 476.5 18 L 480.5 18 L 482.5 19 L 484.5 19 L 498.5 20 L 500 19.5 L 500 29.5 L 498.5 30 L 498.5 31 Q 501.3 30.4 500 36.5 L 500 38.5 Q 501.5 44 499 45.5 Q 501.5 47 500 52.5 L 499 54.5 L 499.5 56 L 494.5 55 L 491.5 56 L 490 55.5 L 491 53.5 L 489.5 51 L 488 51.5 L 487.5 50 L 486 51.5 L 487.5 54 Q 486 50.5 484.5 53 L 479.5 52 L 478 52.5 L 476.5 50 L 472.5 49 L 470.5 50 L 468.5 50 L 463.5 51 L 464.5 49 L 466 48.5 L 465.5 47 L 467.5 48 L 468 45 L 476 46.5 L 474.5 49 L 479 47 L 480 49.5 L 478 49.5 Q 477.4 52.3 483.5 51 L 485 51.5 L 486.5 49 L 491 47.5 L 489 46.5 L 489.5 45 L 487 43.5 L 494 42.5 Q 491.2 41.7 492 37.5 L 492 35.5 Q 494.1 29.6 489.5 31 L 484.5 28 L 481.5 29 L 479.5 30 L 479 28.5 Q 481.8 27.8 481 23.5 L 478.5 25 L 477 24.5 L 483 20.5 L 468.5 18 Q 467.2 20.3 466 17.5 L 464 14.5 L 463 10.5 L 464 8 L 467.5 9 L 467 7.5 L 467 5 Z M 496 52 L 496 54 L 498 53 L 496 52 Z " /><path fill="rgb(46,44,47)" stroke="rgb(46,44,47)" stroke-width="1" opacity="1" d="M 134 6 L 136 6.5 L 134 7.5 L 134 6 Z " /><path fill="rgb(46,44,47)" stroke="rgb(46,44,47)" stroke-width="1" opacity="1" d="M 130 9 L 133.5 10 L 135 9.5 L 138 16 L 144.5 19 L 148.5 19 L 149.5 18 L 153.5 20 L 165.5 20 L 166.5 19 L 167 36.5 L 166 41.5 L 166 43.5 L 165 47.5 L 167 51.5 L 165 55.5 L 165.5 57 L 162.5 56 L 162.5 57 L 164 57.5 L 159.5 60 L 159 58 Q 162 59 161 56 Q 155.5 57.1 153 54.5 L 153.5 53 L 151.5 54 L 149.5 54 L 146.5 55 L 144.5 52 L 143 52.5 L 143.5 51 L 141 50.5 L 144 48.5 L 145.5 46 L 146 47.5 L 145.5 49 L 149 50.5 Q 148.2 53.1 151.5 52 L 154 50.5 L 153 48.5 L 154.5 46 Q 151.9 46.7 153 44 L 156.5 43 L 161 44 L 161 42 L 159 42 Q 160.1 39.3 157.5 40 L 156 40.5 L 156.5 38 L 159 39 Q 160.3 35.3 154.5 37 L 153 37.5 Q 151.7 33.3 156.5 35 L 159 36 L 159 32 L 157.5 32 L 149.5 29 L 146 29.5 L 147 25 Q 144 26 145 23 L 149 21.5 L 147.5 20 L 139.5 19 L 137.5 19 Q 132.2 19.7 131.5 16 L 130.5 19 L 129 14.5 L 130 9 Z M 161 40 L 161 41 L 163 41 L 161 40 Z M 161 48 L 160 52 L 161 52 L 161 48 Z M 148 50 L 145 52 L 148 52 L 148 50 Z M 157 53 L 155 55 L 158 55 L 157 53 Z " /><path fill="rgb(46,44,47)" stroke="rgb(46,44,47)" stroke-width="1" opacity="1" d="M 297 9 L 302 9 L 302 12.5 L 309.5 18 L 320.5 19 L 321.5 20 L 333 20 L 333 29.5 L 332 30.5 Q 334.3 31.7 333 36.5 L 333 38.5 Q 334.5 44 332 45.5 L 333 46.5 L 333 54 L 331 54.5 L 333 55 L 333 57 Q 330.3 55.9 331 58.5 L 333 62 L 325.5 61 Q 324.3 63.3 323 60.5 L 323.5 59 L 321 57.5 L 322.5 58 L 324.5 59 L 326.5 58 L 326.5 60 L 328.5 59 L 328.5 61 L 331 59.5 L 328 57.5 L 331 57 Q 332.1 54.3 329.5 55 L 328 55.5 L 327.5 54 L 326.5 56 L 323.5 54 L 322 54.5 Q 324.3 53.2 321.5 52 L 318 53 L 317.5 56 L 315 55 Q 316.8 50.5 311.5 52 L 308 50.5 L 308.5 49 L 305.5 51 L 305.5 49 L 300 50.5 L 300.5 52 L 298.5 51 L 297.5 53 L 297 50 Q 299.7 51.1 299 48.5 L 302 47.5 Q 302.8 45.3 300.5 46 L 300.5 45 L 308 46.5 L 307.5 48 L 315 49.5 L 311 50.5 L 318.5 52 L 321 47.5 L 320.5 44 L 322.5 43 L 324.5 43 L 329.5 44 L 329.5 43 L 326 42 L 323.5 36 L 321.5 36 L 320 35.5 L 326 35 L 324.5 31 Q 320.1 32.5 321 29.5 L 318.5 29 L 316.5 28 Q 315.5 31 310.5 30 L 310.5 29 L 314 26.5 L 312.5 24 L 311 23.5 L 313.5 22 L 315 22.5 L 315 20 L 308.5 20 L 307.5 19 L 300 19 Q 301.1 16.3 298.5 17 L 297 17.5 L 298 14.5 L 296 12.5 L 297 9 Z M 329 41 L 330 42 L 331 43 Q 332 40 329 41 Z M 323 45 L 321 47 L 324 47 L 323 45 Z M 326 47 L 322 50 L 326 50 L 327 48 L 326 47 Z M 330 47 L 328 49 L 330 50 L 330 47 Z M 323 51 L 323 52 L 328 53 Q 329 49 323 51 Z " /><path fill="rgb(46,44,47)" stroke="rgb(46,44,47)" stroke-width="1" opacity="1" d="M 459.5 13 L 458.5 15 L 459.5 13 Z " /><path fill="rgb(46,44,47)" stroke="rgb(46,44,47)" stroke-width="1" opacity="1" d="M 418.5 14 Q 420.8 13.3 420 15.5 L 418.5 14 Z " /><path fill="rgb(46,44,47)" stroke="rgb(46,44,47)" stroke-width="1" opacity="1" d="M 86.5 19 L 88 19.5 Q 84.8 20.9 86 26 L 89.5 25 L 89.5 26 L 86 27.5 L 90.5 34 L 91 31 L 101.5 35 L 107.5 31 L 111 32 L 111.5 30 L 113.5 31 L 115 30.5 L 116 33.5 L 114 34 L 113.5 32 L 111.5 36 Q 110 33.5 108.5 37 Q 101.7 35.7 98.5 38 L 97 37.5 L 96.5 39 L 95 38.5 L 96.5 41 L 99.5 40 L 105 41 Q 103.9 44.5 111.5 43 L 114 44.5 L 112 45.5 L 112 44 L 108 44 L 107.5 46 Q 106.4 43.3 103 44 L 102.5 42 L 95 46 L 95 50 Q 92 48.8 93 52.5 L 92.5 54 L 94 54.5 L 92.5 58 Q 91.3 55.8 90 58.5 L 91 60.5 Q 89.3 62.8 84.5 62 L 79.5 60 L 78.5 62 L 78 60.5 L 79.5 57 Q 81 59.5 86.5 58 L 88 57.5 L 86.5 60 L 89 58.5 Q 88.3 56.3 90.5 57 Q 93.3 55.8 91 54.5 L 92 50 L 90 49.5 L 94 47.5 L 92.5 44 L 91.5 46 L 89.5 46 L 86 47.5 L 89 49.5 Q 87.8 52.3 86.5 50 Q 84.3 50.8 85 48.5 L 84 46 L 88 44.5 L 91 39.5 L 90 37 Q 85.8 36 84.5 39 L 82.5 39 L 55.5 42 L 53.5 41 L 48.5 42 L 46.5 42 L 41.5 41 L 39.5 41 L 17.5 41 L 16.5 42 Q 15.2 39.7 10.5 41 L 8.5 41 Q 5.9 40.3 7 43 L 14.5 46 L 18.5 46 L 20.5 48 Q 26.8 46.3 28.5 49 L 30.5 49 L 44.5 50 L 45.5 51 L 48.5 50 L 51.5 52 L 53.5 51 Q 56.3 54.7 63.5 54 L 65.5 54 L 70 55 L 70.5 57 L 71.5 55 L 72.5 57 L 75.5 56 L 78 58.5 Q 77.3 60.8 73.5 60 L 69.5 57 Q 67.5 61 65.5 57 L 62 56 L 61.5 58 L 61 56 L 58 56.5 L 60 57 L 59.5 59 L 56.5 56 L 54.5 56 L 51 56.5 L 53 57.5 L 52 60 L 54 60.5 L 51 62 L 49 55 L 44.5 53 Q 44 56.5 39.5 56 L 39.5 55 L 41 54.5 Q 36 55 34.5 52 L 31.5 53 Q 29.8 49.3 28 52.5 L 28 54.5 L 29 57.5 L 27 58.5 L 26 56.5 L 27 51 L 24.5 50 L 22 51 L 21.5 53 L 19.5 51 L 14.5 50 L 12 50.5 L 11.5 52 L 11 49 L 13 48.5 L 11 48 Q 12.1 45.3 9.5 46 L 7.5 45 L 5 46 L 5 35.5 L 7 35 L 8.5 38 L 10.5 37 L 16.5 39 L 18.5 39 L 24.5 38 L 26.5 39 L 29.5 38 L 33 40 L 33.5 38 L 41.5 38 L 44 37.5 Q 43.3 34.9 46 36 L 46 34 L 38.5 34 L 37.5 35 L 38.5 33 Q 46.2 31.3 48 35.5 L 46 36.5 L 48 37.5 L 47.5 39 L 50.5 37 L 52.5 37 L 54.5 38 L 58.5 37 L 61.5 38 Q 64.5 35 71.5 36 L 73 36.5 Q 72.3 34.3 74.5 35 L 80.5 31 L 83 32 Q 81.9 29.3 84.5 30 L 84 28.5 Q 82.8 21.3 86.5 19 Z M 106 33 Q 104 36 107 35 L 106 33 Z " /><path fill="rgb(46,44,47)" stroke="rgb(46,44,47)" stroke-width="1" opacity="1" d="M 253.5 19 L 254 22 L 252 22.5 L 253 25 L 256 25.5 L 252 27.5 L 255 29.5 Q 254.5 33.5 257.5 34 L 258.5 31 Q 262.3 30 261 33 L 264.5 33 L 266.5 33 Q 268.8 32.3 268 34.5 L 273.5 30 L 275 30.5 L 273.5 33 L 272 32.5 Q 271.2 35.1 274.5 34 Q 275.8 31 280 32 Q 278.9 29.3 281.5 30 L 282.5 33 L 287 33.5 L 281.5 35 L 279.5 35 L 272.5 37 L 269.5 36 L 266.5 38 L 262 37 Q 260.2 41.9 266.5 40 L 274.5 43 L 276.5 42 L 277.5 44 L 273.5 45 L 270 44 Q 271.3 41 267.5 42 L 262 43.5 L 263.5 46 L 261 45.5 L 260.5 44 L 258 45 Q 259.3 42 255.5 43 L 256 41.5 L 257 38.5 L 255.5 36 L 253 36.5 Q 253.8 38.8 251.5 38 L 249.5 37 L 246.5 39 L 241.5 39 L 235.5 41 L 219.5 41 L 218.5 42 L 208.5 40 L 205.5 41 L 200.5 40 Q 199.3 42.3 194.5 41 L 192.5 40 L 189.5 41 Q 182 42.5 178.5 40 L 174 42.5 L 181 45 L 181.5 48 L 182 46 Q 186.5 45.2 188.5 48 L 196.5 48 Q 200.5 51 208.5 50 L 210.5 50 L 212.5 51 L 214.5 51 L 217.5 50 L 222 52.5 L 222.5 54 L 223 52 L 226.5 54 L 229.5 54 L 231.5 53 L 234.5 55 Q 236 52.5 237.5 56 L 241.5 56 L 242 58 L 244.5 58 L 246.5 57 L 249.5 58 L 249.5 56 Q 251 59.5 252.5 57 L 255.5 58 L 256.5 55 L 258 58 Q 255.3 56.9 256 59.5 L 255.5 62 Q 247.9 62.6 245.5 58 L 241.5 60 L 238.5 57 L 235.5 58 Q 234.1 55.4 229.5 56 L 226.5 58 L 224 56.5 L 224.5 55 L 222.5 56 L 219 55.5 Q 218.4 60.1 221 61.5 L 218 62 L 215.5 54 L 213 55.5 L 213.5 54 L 210 53 Q 211.1 55.7 208.5 55 L 203.5 53 L 202 53.5 Q 202.8 51.3 200.5 52 L 198.5 51 L 195 52 Q 196.5 57.4 193.5 59 L 194 57.5 L 193 55.5 L 194 53.5 L 193 50 Q 189.2 49 188 51.5 L 188.5 53 L 187.5 50 L 183 51 Q 184.1 48.3 181.5 49 L 178 49.5 Q 178.8 45.8 176.5 45 L 172 44 L 171 37.5 L 172.5 34 L 175.5 38 L 176.5 36 L 179.5 38 L 194 38 L 194.5 36 L 196.5 39 L 199 38.5 L 197 38 L 197.5 36 L 204.5 38 L 211.5 38 L 210.5 35 L 212 35.5 Q 212.9 32.5 208.5 34 L 208.5 33 L 214.5 34 L 217.5 33 L 217.5 34 L 215 35.5 L 215.5 37 L 213 37.5 L 215.5 39 Q 216.9 36.4 221.5 37 L 225.5 38 Q 228.3 34.6 235 36 L 234 33.5 L 236 34.5 Q 235.3 36.8 237.5 36 L 251 29.5 L 252 26.5 L 251 21.5 L 253.5 19 Z M 255 58 L 253 60 L 255 60 L 255 58 Z " /><path fill="rgb(46,44,47)" stroke="rgb(46,44,47)" stroke-width="1" opacity="1" d="M 417.5 19 L 419.5 19 L 421 19.5 Q 418 20.8 419 25 L 421 25.5 L 419 26 L 419 28 Q 421.7 26.9 421 29.5 L 422 32 L 424.5 33 L 425.5 30 L 428.5 33 L 433.5 34 L 435.5 33 L 437 33.5 L 438.5 31 L 441.5 29 L 441.5 31 L 446 32.5 L 443.5 33 L 440 32 L 440.5 34 L 442 33.5 L 441.5 36 Q 435 34.5 433.5 38 L 431.5 37 L 429.5 37 Q 427.3 36.3 428 38.5 L 429.5 40 L 435.5 40 L 438.5 42 Q 444.9 41.1 448 43.5 L 445.5 44 L 443.5 43 L 440.5 45 Q 439.1 41.4 433.5 42 L 428 46.5 Q 429.1 49.8 426.5 49 L 426.5 51 Q 423.9 51.8 425 48.5 L 427 45 Q 423.3 46.5 424 43.5 L 423 43.5 Q 423.8 45.8 421.5 45 L 420 46.5 L 421.5 49 L 417.5 50 L 418 48.5 L 418 46.5 L 423 40.5 L 423 37.5 Q 421 33 419 36.5 Q 419.8 38.8 417.5 38 L 415.5 38 L 411.5 39 L 409.5 39 L 398.5 41 L 396.5 40 L 395.5 41 L 376.5 41 L 372.5 41 L 365.5 40 L 363.5 40 L 361.5 41 L 358.5 40 L 356.5 41 L 353.5 40 L 348.5 41 L 345.5 40 L 342 41 L 342 43 Q 346.1 41.7 345 45 L 349.5 45 L 356.5 48 L 366.5 48 Q 367.9 50.6 372.5 50 L 374.5 49 L 378.5 51 L 381.5 50 L 383.5 51 L 385 50.5 L 385.5 52 L 388.5 51 Q 390.8 53.7 396.5 53 Q 398 50.5 399.5 54 L 406.5 56 L 408.5 56 L 412.5 58 L 414.5 57 L 416.5 58 L 416.5 56 Q 418 59.5 419.5 57 L 424 58.5 L 418.5 62 L 411.5 58 L 410 58.5 L 409.5 57 L 409 59 L 401.5 56 L 395.5 56 Q 394 59.5 392.5 57 L 391 56.5 L 391.5 55 L 389.5 56 L 385 55 L 387 61 L 393.5 59 L 393.5 60 L 391 60 L 390.5 62 L 385 62 L 384 56 L 381 54.5 Q 381.8 52.3 379.5 53 L 377 54.5 Q 379.3 55.8 376.5 57 L 376.5 55 L 373.5 53 L 371.5 53 L 362 51 L 361 53.5 L 363 57.5 L 361.5 58 L 360 55.5 L 360 53.5 Q 361.8 47.8 355.5 50 L 355.5 52 Q 352.9 52.7 354 50 L 349 50 L 349 48.5 L 346.5 50 L 345 50.5 L 345.5 52 L 344 50.5 L 345.5 47 L 348 46.5 L 340.5 45 L 338 42.5 L 338 40.5 Q 336.5 32.9 340 34 L 341.5 37 Q 343.8 37.8 343 35.5 L 344 35.5 Q 343.2 38.1 346.5 37 Q 348 39.5 353.5 38 Q 355.3 35.3 361.5 37 L 365.5 39 Q 367 35.5 373.5 37 L 374.5 38 L 377.5 35 L 379 34.5 L 376 33.5 L 378.5 33 L 381 34.5 L 380.5 38 L 392.5 37 L 393.5 36 L 395.5 36 L 398.5 35 L 400.5 35 L 403.5 36 L 411 34 L 411 32 Q 413.7 33.1 413 30.5 L 414.5 31 L 418 28.5 L 418 26.5 L 417 22.5 L 418 20.5 L 417.5 19 Z M 419 58 L 419 60 L 422 60 Q 423 57 419 58 Z " /><path fill="rgb(46,44,47)" stroke="rgb(46,44,47)" stroke-width="1" opacity="1" d="M 425.5 19 L 426.5 21 L 425.5 19 Z " /><path fill="rgb(46,44,47)" stroke="rgb(46,44,47)" stroke-width="1" opacity="1" d="M 454.5 20 L 452.5 23 L 454.5 20 Z " /><path fill="rgb(46,44,47)" stroke="rgb(46,44,47)" stroke-width="1" opacity="1" d="M 287.5 21 L 286.5 23 L 287.5 21 Z " /><path fill="rgb(46,44,47)" stroke="rgb(46,44,47)" stroke-width="1" opacity="1" d="M 51.5 23 L 50.5 26 L 53 26.5 L 50.5 30 L 50 27 Q 47.3 28.1 48 25.5 L 51.5 23 Z " /><path fill="rgb(46,44,47)" stroke="rgb(46,44,47)" stroke-width="1" opacity="1" d="M 217.5 23 L 217 24.5 Q 217.8 26.8 215.5 26 L 217.5 23 Z " /><path fill="rgb(46,44,47)" stroke="rgb(46,44,47)" stroke-width="1" opacity="1" d="M 383.5 23 L 384 24.5 L 381.5 26 L 383.5 23 Z " /><path fill="rgb(46,44,47)" stroke="rgb(46,44,47)" stroke-width="1" opacity="1" d="M 94.5 24 L 96 27 Q 92.5 28.1 94.5 24 Z " /><path fill="rgb(46,44,47)" stroke="rgb(46,44,47)" stroke-width="1" opacity="1" d="M 261.5 24 L 262 26 L 260 25.5 L 261.5 24 Z " /><path fill="rgb(46,44,47)" stroke="rgb(46,44,47)" stroke-width="1" opacity="1" d="M 428.5 24 L 429 26.5 L 428 26.5 L 428.5 24 Z " /><path fill="rgb(46,44,47)" stroke="rgb(46,44,47)" stroke-width="1" opacity="1" d="M 385.5 25 L 385 26.5 L 383.5 31 L 383 28.5 L 385.5 25 Z " /><path fill="rgb(46,44,47)" stroke="rgb(46,44,47)" stroke-width="1" opacity="1" d="M 218.5 26 L 217.5 28 L 218.5 26 Z " /><path fill="rgb(46,44,47)" stroke="rgb(46,44,47)" stroke-width="1" opacity="1" d="M 307.5 27 L 309 27.5 L 306.5 29 L 307.5 27 Z " /><path fill="rgb(46,44,47)" stroke="rgb(46,44,47)" stroke-width="1" opacity="1" d="M 473.5 27 Q 475.8 26.3 475 28.5 L 473.5 27 Z " /><path fill="rgb(46,44,47)" stroke="rgb(46,44,47)" stroke-width="1" opacity="1" d="M 476.5 28 L 477.5 30 L 475.5 31 L 476 29.5 L 476.5 28 Z " /><path fill="rgb(46,44,47)" stroke="rgb(46,44,47)" stroke-width="1" opacity="1" d="M 128.5 29 L 131 29.5 L 128.5 30 L 128.5 29 Z " /><path fill="rgb(46,44,47)" stroke="rgb(46,44,47)" stroke-width="1" opacity="1" d="M 216.5 29 L 217 31.5 L 216 31.5 L 216.5 29 Z " /><path fill="rgb(46,44,47)" stroke="rgb(46,44,47)" stroke-width="1" opacity="1" d="M 447.5 29 L 449.5 33 L 451 33.5 Q 449.5 36.5 448 33.5 L 447.5 29 Z " /><path fill="rgb(46,44,47)" stroke="rgb(46,44,47)" stroke-width="1" opacity="1" d="M 61.5 32 L 62.5 34 L 61.5 32 Z " /><path fill="rgb(46,44,47)" stroke="rgb(46,44,47)" stroke-width="1" opacity="1" d="M 372.5 32 L 375 32.5 L 372.5 33 L 372.5 32 Z " /><path fill="rgb(46,44,47)" stroke="rgb(46,44,47)" stroke-width="1" opacity="1" d="M 487.5 34 L 491 35 Q 492.1 37.7 489.5 37 L 487 36.5 L 487.5 34 Z " /><path fill="rgb(46,44,47)" stroke="rgb(46,44,47)" stroke-width="1" opacity="1" d="M 323.5 38 L 324 40 L 318.5 42 L 318 40 L 323.5 38 Z " /><path fill="rgb(46,44,47)" stroke="rgb(46,44,47)" stroke-width="1" opacity="1" d="M 487.5 38 L 489 38.5 L 485.5 41 L 485 39 L 487.5 38 Z " /><path fill="rgb(46,44,47)" stroke="rgb(46,44,47)" stroke-width="1" opacity="1" d="M 152.5 39 Q 155.5 40.5 152.5 42 L 152.5 39 Z " /><path fill="rgb(46,44,47)" stroke="rgb(46,44,47)" stroke-width="1" opacity="1" d="M 254.5 44 L 257 44.5 L 254 48.5 L 254.5 50 L 251.5 51 L 251 48.5 L 254.5 44 Z " /><path fill="rgb(46,44,47)" stroke="rgb(46,44,47)" stroke-width="1" opacity="1" d="M 283.5 44 L 286 44.5 L 283.5 45 L 283.5 44 Z " /><path fill="rgb(46,44,47)" stroke="rgb(46,44,47)" stroke-width="1" opacity="1" d="M 133.5 46 Q 140.3 44.7 143 47.5 L 140 48.5 Q 140.8 50.8 138.5 50 L 136 49 Q 137.3 52 133.5 51 L 130 52 L 130.5 50 Q 131.8 52.3 133 49.5 L 132.5 48 L 135.5 49 L 134.5 47 L 133.5 46 Z " /><path fill="rgb(46,44,47)" stroke="rgb(46,44,47)" stroke-width="1" opacity="1" d="M 311.5 46 L 313 46.5 L 310.5 48 L 311.5 46 Z " /><path fill="rgb(46,44,47)" stroke="rgb(46,44,47)" stroke-width="1" opacity="1" d="M 260 47 Q 263 46 262 49 Q 259.3 47.9 260 50.5 L 259 50.5 L 260 47 Z " /><path fill="rgb(46,44,47)" stroke="rgb(46,44,47)" stroke-width="1" opacity="1" d="M 120.5 50 L 120 51.5 Q 119.3 53.8 121.5 53 L 123 56.5 L 120.5 57 L 119 55.5 L 120 53.5 L 119 51.5 L 120.5 50 Z " /><path fill="rgb(46,44,47)" stroke="rgb(46,44,47)" stroke-width="1" opacity="1" d="M 178.5 51 L 180 56.5 L 179.5 59 L 178 58.5 L 178.5 51 Z " /><path fill="rgb(46,44,47)" stroke="rgb(46,44,47)" stroke-width="1" opacity="1" d="M 424.5 52 L 425 54.5 L 424 54.5 L 424.5 52 Z " /><path fill="rgb(46,44,47)" stroke="rgb(46,44,47)" stroke-width="1" opacity="1" d="M 131.5 54 L 132 55.5 L 130 56.5 L 131.5 54 Z " /><path fill="rgb(46,44,47)" stroke="rgb(46,44,47)" stroke-width="1" opacity="1" d="M 345.5 54 Q 348.3 55.2 346 56.5 L 345.5 59 L 344 55.5 L 345.5 54 Z " /><path fill="rgb(46,44,47)" stroke="rgb(46,44,47)" stroke-width="1" opacity="1" d="M 463.5 54 L 466 55.5 L 464.5 56 L 463.5 54 Z " /><path fill="rgb(46,44,47)" stroke="rgb(46,44,47)" stroke-width="1" opacity="1" d="M 482.5 54 L 486 54.5 L 482.5 55 L 482.5 54 Z " /><path fill="rgb(46,44,47)" stroke="rgb(46,44,47)" stroke-width="1" opacity="1" d="M 11.5 56 L 14 56.5 L 13 59.5 L 13.5 61 L 11.5 56 Z " /><path fill="rgb(46,44,47)" stroke="rgb(46,44,47)" stroke-width="1" opacity="1" d="M 297.5 57 L 298 60 L 296 59.5 L 297.5 57 Z " /><path fill="rgb(46,44,47)" stroke="rgb(46,44,47)" stroke-width="1" opacity="1" d="M 315 57 L 320 58.5 L 315 59 L 315 57 Z " /><path fill="rgb(46,44,47)" stroke="rgb(46,44,47)" stroke-width="1" opacity="1" d="M 459.5 57 Q 462.1 56.3 461 59 L 458 58.5 L 459.5 57 Z " /><path fill="rgb(46,44,47)" stroke="rgb(46,44,47)" stroke-width="1" opacity="1" d="M 463.5 57 L 465 61 L 462 59.5 L 463.5 57 Z " /><path fill="rgb(46,44,47)" stroke="rgb(46,44,47)" stroke-width="1" opacity="1" d="M 487 57 L 492.5 58 L 494 57.5 L 492.5 60 L 494 60.5 Q 492.3 62.8 487.5 62 L 487.5 61 Q 491.5 61.5 492 58.5 L 490.5 58 L 487 59 L 487 57 Z " /><path fill="rgb(46,44,47)" stroke="rgb(46,44,47)" stroke-width="1" opacity="1" d="M 495 57 L 499 59.5 Q 500.1 63.7 496 62 L 495 57 Z " /><path fill="rgb(46,44,47)" stroke="rgb(46,44,47)" stroke-width="1" opacity="1" d="M 121.5 58 Q 123.2 61.1 125 59.5 Q 123.7 62.3 122.5 60 L 120 59.5 L 121.5 58 Z " /><path fill="rgb(46,44,47)" stroke="rgb(46,44,47)" stroke-width="1" opacity="1" d="M 127.5 58 L 128 60 L 126 59.5 L 127.5 58 Z " /><path fill="rgb(46,44,47)" stroke="rgb(46,44,47)" stroke-width="1" opacity="1" d="M 154.5 58 L 156.5 58 L 158 58.5 L 156 59.5 L 159 61.5 L 157.5 62 L 153 59.5 L 154.5 58 Z " /><path fill="rgb(46,44,47)" stroke="rgb(46,44,47)" stroke-width="1" opacity="1" d="M 188.5 58 L 189.5 60 Q 186.7 60.7 188.5 58 Z " /><path fill="rgb(46,44,47)" stroke="rgb(46,44,47)" stroke-width="1" opacity="1" d="M 292.5 58 L 293 61 L 289 61 L 289 59.5 L 290.5 60 Q 293 60.7 292.5 58 Z " /><path fill="rgb(46,44,47)" stroke="rgb(46,44,47)" stroke-width="1" opacity="1" d="M 163.5 59 L 166 60.5 Q 166.9 63.9 161.5 62 L 163.5 59 Z " /><path fill="rgb(46,44,47)" stroke="rgb(46,44,47)" stroke-width="1" opacity="1" d="M 224 59 Q 227 58 226 61 L 223.5 62 L 224 60.5 L 224 59 Z " /><path fill="rgb(46,44,47)" stroke="rgb(46,44,47)" stroke-width="1" opacity="1" d="M 180.5 60 L 185 61.5 L 182.5 62 L 180.5 60 Z " /><path fill="rgb(46,44,47)" stroke="rgb(46,44,47)" stroke-width="1" opacity="1" d="M 352.5 60 L 355 60.5 Q 354 63 349.5 62 L 349.5 61 L 352.5 60 Z " /><path fill="rgb(46,44,47)" stroke="rgb(46,44,47)" stroke-width="1" opacity="1" d="M 19.5 61 L 22 61.5 L 19.5 62 L 19.5 61 Z " /><path fill="rgb(14,13,13)" stroke="rgb(14,13,13)" stroke-width="1" opacity="1" d="M 141.5 0 L 165 0.5 L 150.5 1 L 149 2.5 L 148 4.5 L 150 9.5 L 150 11.5 L 150.5 14 L 151.5 13 L 154.5 16 L 158.5 17 L 160.5 17 L 165.5 19 L 166.5 1 L 167 18.5 L 165.5 20 L 153.5 20 L 149.5 18 L 148.5 19 L 144.5 19 L 138 16 L 135 11.5 L 135 7.5 L 139.5 1 L 141.5 0 Z " /><path fill="rgb(14,13,13)" stroke="rgb(14,13,13)" stroke-width="1" opacity="1" d="M 306.5 0 L 333 0.5 L 318.5 1 L 317.5 2 L 316 1.5 Q 316.8 4.1 313.5 3 L 313.5 4 L 316 5.5 L 314 8.5 L 315.5 9 L 317 8.5 L 316 10.5 L 316.5 13 L 319 13.5 L 318.5 15 L 322.5 16 L 324 15.5 L 324.5 17 L 325.5 15 L 327.5 18 L 333 17 L 332.5 20 L 330.5 20 L 314.5 19 L 305.5 16 L 304 16.5 L 305 15.5 L 302 12.5 L 302 7.5 L 305 3.5 Q 302.3 1.7 306.5 0 Z " /><path fill="rgb(14,13,13)" stroke="rgb(14,13,13)" stroke-width="1" opacity="1" d="M 472.5 0 L 477.5 1 L 479.5 1 Q 482.8 -0.1 482 2.5 L 481.5 4 L 483 4.5 L 482 7 Q 484.7 5.9 484 8.5 L 484 12.5 L 484.5 14 L 485.5 13 L 488.5 16 L 491.5 15 L 495.5 17 L 497.5 16 L 499 16.5 L 499.5 0 L 500 18.5 L 498.5 20 L 488.5 20 L 483.5 18 L 481.5 18 L 479.5 17 L 475.5 17 L 472.5 15 L 471 15.5 L 469 11.5 L 469 7.5 L 472.5 0 Z M 481 12 L 481 13 L 483 13 L 481 12 Z " /><path fill="rgb(14,13,13)" stroke="rgb(14,13,13)" stroke-width="1" opacity="1" d="M 422 14 Q 427.3 12.2 425 19.5 Q 428.9 21.6 428 27 L 431 28.5 Q 432.9 33.9 429.5 33 L 425.5 30 L 424.5 33 L 422 32 L 421 28 Q 418 29 419 26 L 421 25.5 L 419 25 Q 418 20.8 421 19.5 L 421 17.5 L 422 14 Z " /><path fill="rgb(14,13,13)" stroke="rgb(14,13,13)" stroke-width="1" opacity="1" d="M 88 15 Q 93.6 12.8 92 18.5 L 91.5 20 Q 93.8 19.3 93 21.5 L 94 27 Q 98.9 25.2 97 31.5 L 97.5 33 L 94.5 33 L 91 31 Q 92 34 89 33 L 86 27.5 L 88 26.5 L 86 26 L 88 15 Z " /><path fill="rgb(14,13,13)" stroke="rgb(14,13,13)" stroke-width="1" opacity="1" d="M 255 15 L 259 15.5 L 258 20 Q 261 18.8 260 22.5 L 261 24.5 L 260.5 26 L 264 28.5 L 265 32.5 L 261 33 Q 262.3 30 258.5 31 L 258.5 33 L 255 31.5 L 253.5 28 L 251 26.5 L 252.5 27 L 256 25.5 L 253 25 L 252 22.5 L 254 22 L 255 15 Z " /><path fill="rgb(14,13,13)" stroke="rgb(14,13,13)" stroke-width="1" opacity="1" d="M 291.5 16 L 292 19 Q 289 17.8 290 21.5 Q 286.6 23.6 286.5 29 L 285 23.5 L 288 21.5 L 291.5 16 Z " /><path fill="rgb(14,13,13)" stroke="rgb(14,13,13)" stroke-width="1" opacity="1" d="M 16.5 18 L 20 20.5 Q 16.5 22 19 23.5 L 16.5 29 Q 13.1 29.9 15 24.5 L 14 20.5 L 16.5 18 Z " /><path fill="rgb(14,13,13)" stroke="rgb(14,13,13)" stroke-width="1" opacity="1" d="M 123.5 18 L 124 19.5 L 121 24.5 L 121 26.5 L 120 29.5 L 120.5 31 Q 117.5 31.5 119 24.5 L 123.5 18 Z " /><path fill="rgb(14,13,13)" stroke="rgb(14,13,13)" stroke-width="1" opacity="1" d="M 182.5 18 L 186 19.5 L 185 21.5 L 191.5 23 L 195 25.5 L 194 32.5 L 195 35.5 L 194 38 L 187.5 37 L 185.5 38 L 180.5 37 L 178.5 37 L 177 36.5 L 177 26.5 L 180.5 22 L 182 21.5 L 181 19.5 L 182.5 18 Z M 181 23 Q 178 24 180 26 L 178 31 L 179 33 L 181 32 L 182 36 Q 184 34 186 37 Q 188 36 187 31 L 185 31 L 188 30 L 190 35 L 193 31 L 192 28 Q 193 25 190 26 L 190 25 L 188 23 Q 184 22 185 25 L 185 27 L 184 29 Q 185 31 183 30 L 183 29 L 182 28 L 182 27 L 181 23 Z M 181 33 L 180 36 L 181 36 L 181 33 Z M 191 35 L 192 37 Q 193 34 191 35 Z " /><path fill="rgb(14,13,13)" stroke="rgb(14,13,13)" stroke-width="1" opacity="1" d="M 348 18 Q 351.8 17 353 19.5 Q 351.7 23.7 356.5 22 L 361 24.5 Q 362.5 30 360 31.5 L 362 34.5 L 361 37 L 354.5 35 L 354.5 36 L 356 36.5 Q 353.2 39.3 347 38 L 349.5 34 L 352.5 35 Q 354.8 35.8 354 33.5 L 353.5 30 L 355 30 Q 353.5 33.8 356.5 33 L 359 32 L 359 26.5 L 357.5 26 L 356.5 23 Q 352 22 351 24.5 Q 352.9 30.8 348 29 L 349 25.5 L 346 24 L 347 26.5 L 345 29.5 L 347 34.5 L 346 37 L 344 36.5 L 344 25.5 L 345 23 L 348 22.5 L 347.5 21 L 349 20.5 L 348 18 Z " /><path fill="rgb(14,13,13)" stroke="rgb(14,13,13)" stroke-width="1" opacity="1" d="M 456.5 18 L 458 18.5 L 455 23.5 L 455.5 25 Q 453.3 24.3 454 26.5 L 454 28.5 L 453.5 31 L 452 26.5 L 453 24.5 L 452 23.5 L 455 20.5 L 456.5 18 Z " /><path fill="rgb(14,13,13)" stroke="rgb(14,13,13)" stroke-width="1" opacity="1" d="M 221.5 19 L 224 20 L 224 24.5 L 227 33 L 229.5 34 L 232.5 33 L 235 34.5 Q 235.5 37.5 228.5 36 Q 227.1 38.6 222.5 38 L 218.5 37 L 213.5 38 L 213.5 37 L 216 36.5 Q 213.8 35.3 216.5 34 L 218 33.5 L 216 32.5 L 218 27.5 L 216 26.5 L 218 22 L 220 21.5 L 219.5 20 L 221.5 19 Z " /><path fill="rgb(14,13,13)" stroke="rgb(14,13,13)" stroke-width="1" opacity="1" d="M 387.5 19 L 391 20.5 L 390 22.5 L 395 33 L 401.5 33 L 402 35 L 399.5 36 L 397.5 36 L 394.5 37 L 392.5 37 L 388.5 36 L 383.5 37 L 380.5 36 L 379 36.5 Q 384.4 33.1 385 26 L 383 25.5 L 385 20 L 387.5 19 Z " /><path fill="rgb(14,13,13)" stroke="rgb(14,13,13)" stroke-width="1" opacity="1" d="M 53.5 20 Q 59.2 18.2 57 24.5 L 62.5 34 L 67.5 33 L 69 36 L 59.5 38 L 55.5 37 L 53.5 37 L 51.5 38 L 44 36 L 43.5 38 L 41.5 38 L 35.5 37 L 33 38 Q 34.1 40.7 31.5 40 L 30 37.5 L 33.5 35 L 46 34 Q 44.9 36.7 47.5 36 L 47.5 34 L 49 34.5 L 53 26.5 L 50 25.5 L 53.5 20 Z " /><path fill="rgb(14,13,13)" stroke="rgb(14,13,13)" stroke-width="1" opacity="1" d="M 22.5 23 L 28 25.5 L 27 32.5 L 28 37.5 L 25.5 39 L 23 38 L 23.5 36 L 25 36.5 Q 25.7 33.5 22 35 L 20.5 39 L 17.5 38 Q 16.3 40.3 15 37.5 L 16.5 35 L 20 37 L 20.5 31 L 22.5 34 L 26 31.5 L 25 26 Q 22.3 27.1 23 24.5 L 22.5 23 Z " /><path fill="rgb(14,13,13)" stroke="rgb(14,13,13)" stroke-width="1" opacity="1" d="M 129.5 23 L 130.5 25 L 129.5 23 Z " /><path fill="rgb(14,13,13)" stroke="rgb(14,13,13)" stroke-width="1" opacity="1" d="M 12.5 24 L 13 25.5 L 12.5 27 L 14 27.5 L 12 30.5 L 13 37 Q 8.9 38.7 10 34.5 Q 12.8 32.8 11 26.5 L 12.5 24 Z " /><path fill="rgb(14,13,13)" stroke="rgb(14,13,13)" stroke-width="1" opacity="1" d="M 186.5 24 L 187.5 26 L 186.5 24 Z " /><path fill="rgb(14,13,13)" stroke="rgb(14,13,13)" stroke-width="1" opacity="1" d="M 354.5 24 L 353.5 26 L 354.5 24 Z " /><path fill="rgb(14,13,13)" stroke="rgb(14,13,13)" stroke-width="1" opacity="1" d="M 469.5 25 L 470.5 27 L 466.5 28 L 467.5 26 L 469.5 25 Z " /><path fill="rgb(14,13,13)" stroke="rgb(14,13,13)" stroke-width="1" opacity="1" d="M 132.5 26 L 134.5 27 Q 135.8 24.8 137 27.5 L 134.5 28 L 132.5 29 L 132.5 26 Z " /><path fill="rgb(14,13,13)" stroke="rgb(14,13,13)" stroke-width="1" opacity="1" d="M 302.5 26 L 303.5 28 L 302.5 26 Z " /><path fill="rgb(14,13,13)" stroke="rgb(14,13,13)" stroke-width="1" opacity="1" d="M 127.5 28 L 131 28.5 L 127.5 29 L 127.5 28 Z " /><path fill="rgb(14,13,13)" stroke="rgb(14,13,13)" stroke-width="1" opacity="1" d="M 295.5 28 L 299 28.5 L 295.5 29 L 295.5 28 Z " /><path fill="rgb(14,13,13)" stroke="rgb(14,13,13)" stroke-width="1" opacity="1" d="M 316.5 28 L 315.5 30 L 316.5 28 Z " /><path fill="rgb(14,13,13)" stroke="rgb(14,13,13)" stroke-width="1" opacity="1" d="M 484.5 28 L 485.5 30 L 484.5 28 Z " /><path fill="rgb(14,13,13)" stroke="rgb(14,13,13)" stroke-width="1" opacity="1" d="M 461.5 29 L 463 31.5 L 461 30.5 L 461.5 29 Z " /><path fill="rgb(14,13,13)" stroke="rgb(14,13,13)" stroke-width="1" opacity="1" d="M 497.5 29 L 500 30.5 L 498.5 31 L 497.5 29 Z " /><path fill="rgb(14,13,13)" stroke="rgb(14,13,13)" stroke-width="1" opacity="1" d="M 286 30 L 288 30.5 L 286 31.5 L 286 30 Z " /><path fill="rgb(14,13,13)" stroke="rgb(14,13,13)" stroke-width="1" opacity="1" d="M 310.5 30 L 307 34.5 L 308 35.5 Q 308.7 38.1 306 37 L 305.5 35 L 304.5 37 L 302.5 37 L 291.5 40 L 288.5 38 L 284.5 40 L 281.5 39 L 281.5 40 L 287.5 42 L 289.5 41 L 294.5 44 L 299.5 43 Q 302.3 44.3 300 45.5 L 300.5 47 L 302 46.5 L 300.5 49 L 299.5 47 L 299 50 Q 296 48.8 297 52.5 L 297 56.5 L 296 61 Q 292.3 62.5 293 59.5 L 294 57.5 L 292.5 58 L 291 57.5 L 295 55.5 L 291.5 55 L 290 55.5 L 290 54 Q 286.3 55.5 287 52.5 L 287 50.5 L 286 47.5 L 287 45.5 Q 285.3 42.3 278.5 44 L 275.5 42 L 273.5 42 L 262 40 Q 260.3 35.5 265.5 37 Q 267 39.5 268.5 36 L 270.5 37 L 273.5 36 L 280 34.5 L 279.5 32 L 277 31.5 L 279.5 31 L 281.5 35 L 282.5 34 L 295.5 34 L 299.5 32 L 303.5 33 L 306.5 31 L 308.5 32 L 310.5 30 Z M 297 44 L 297 46 L 299 45 L 297 44 Z M 295 47 L 293 50 Q 291 51 294 52 L 295 50 L 295 47 Z M 292 53 L 292 54 L 294 54 L 292 53 Z " /><path fill="rgb(14,13,13)" stroke="rgb(14,13,13)" stroke-width="1" opacity="1" d="M 476.5 30 L 476 31.5 Q 476.8 34.1 473.5 33 L 475 35.5 L 473.5 37 Q 471.5 33 469.5 37 L 456.5 39 L 454 38.5 L 453.5 37 L 452.5 39 L 450.5 38 Q 447.5 39.5 450.5 41 L 454.5 42 L 456.5 41 L 462.5 44 L 465.5 43 L 468 44.5 L 468 46.5 L 467.5 48 L 465.5 47 L 465.5 49 L 463 50.5 L 465 53.5 L 463 54.5 L 463 56.5 L 462 60 L 460 59.5 L 461 57 L 459 56.5 L 461 55.5 L 458 55 L 457.5 57 Q 454.8 55.8 457 54.5 Q 457.9 51.1 452.5 53 L 454 50.5 L 453 44 L 444.5 42 L 438.5 42 L 435.5 40 L 429.5 40 L 428 38.5 Q 427.3 36.3 429.5 37 L 431.5 37 L 433.5 38 L 435.5 36 L 442 35.5 L 441.5 34 L 446 32.5 L 444 31.5 L 446.5 31 L 449.5 35 L 453.5 32 L 458.5 34 L 459.5 33 L 472.5 32 L 476.5 30 Z M 461 51 L 458 52 L 459 54 L 462 53 L 461 51 Z " /><path fill="rgb(14,13,13)" stroke="rgb(14,13,13)" stroke-width="1" opacity="1" d="M 141.5 31 L 144 32.5 L 141 37 L 138.5 36 L 136.5 38 L 126.5 39 L 124.5 38 L 124.5 40 L 120.5 39 L 118.5 39 L 115 40.5 L 121.5 43 L 123.5 43 L 130 43.5 L 129.5 45 L 134.5 44 L 133.5 47 L 137 49.5 L 135.5 49 L 132.5 48 L 131.5 51 L 130 50.5 L 131 54.5 L 129 61 L 126 60.5 L 128 60 L 127.5 58 Q 126.2 60.3 125 57.5 L 125.5 56 L 120.5 53 L 120.5 55 Q 117.8 53.7 120 52.5 L 121 50.5 L 120 45 L 111.5 43 L 105 43 Q 106.3 39.3 100.5 41 L 97.5 40 Q 96.3 42.3 95 39.5 L 95.5 38 L 97 38.5 L 97.5 37 L 99.5 38 L 100.5 37 L 108.5 37 L 110.5 35 L 112 35.5 L 113.5 32 L 114 34 L 117.5 35 L 120.5 33 L 124.5 35 L 128.5 33 L 130.5 34 L 130.5 32 L 132.5 33 L 134.5 33 L 136.5 32 L 138.5 32 L 141.5 31 Z M 137 34 L 136 36 L 138 35 L 137 34 Z M 127 49 L 125 51 L 127 51 L 127 49 Z M 127 53 L 127 56 Q 130 55 127 53 Z M 128 56 L 129 58 Q 130 55 128 56 Z " /><path fill="rgb(14,13,13)" stroke="rgb(14,13,13)" stroke-width="1" opacity="1" d="M 207.5 33 L 212 34 L 211 36.5 L 211.5 38 L 198 37 L 199.5 34 L 203.5 35 L 207.5 33 Z " /><path fill="rgb(14,13,13)" stroke="rgb(14,13,13)" stroke-width="1" opacity="1" d="M 371.5 33 L 378.5 34 L 380 33.5 L 374.5 38 Q 373 35.5 367.5 37 L 363.5 39 L 362.5 37 L 365 36.5 L 364.5 35 L 366.5 34 L 368.5 35 L 371.5 33 Z " /><path fill="rgb(14,13,13)" stroke="rgb(14,13,13)" stroke-width="1" opacity="1" d="M 323.5 34 L 326 34.5 L 323.5 35 L 323.5 34 Z " /><path fill="rgb(14,13,13)" stroke="rgb(14,13,13)" stroke-width="1" opacity="1" d="M 256.5 35 L 256 36.5 L 257 39.5 L 255 42.5 L 258 43 Q 256.9 45.7 259.5 45 L 261 44.5 L 259 50.5 L 261 50.5 L 258.5 54 L 257 53.5 L 256 55.5 Q 258.5 57 255 58.5 L 256 60.5 L 254.5 60 L 253 59.5 L 254.5 57 L 251.5 58 L 249.5 58 L 245.5 57 L 242 58 Q 243.3 54.3 237.5 56 L 233.5 54 L 230.5 53 L 226.5 54 L 223 52 L 222.5 54 L 220.5 51 L 217.5 50 L 214.5 51 L 211.5 50 L 209.5 49 Q 207.8 51.8 201.5 50 Q 197.1 46.9 188.5 48 L 174 42.5 L 179.5 40 L 180.5 41 L 189.5 41 L 192.5 40 L 199.5 41 L 202.5 40 L 205.5 41 L 209.5 41 L 217.5 41 L 218.5 42 L 219.5 41 L 235.5 41 L 241.5 39 L 246.5 39 L 250.5 37 L 253 38 L 253.5 36 Q 255 38.5 256.5 35 Z M 238 44 L 238 46 L 237 48 L 239 50 Q 241 49 240 46 L 238 44 Z M 255 44 L 251 46 L 249 46 L 246 48 L 252 51 L 255 50 L 254 49 L 257 45 L 255 44 Z M 233 46 L 231 48 L 236 48 L 237 46 L 235 47 L 233 46 Z M 242 47 L 243 49 L 244 49 L 242 47 Z " /><path fill="rgb(14,13,13)" stroke="rgb(14,13,13)" stroke-width="1" opacity="1" d="M 420.5 35 L 423 35.5 L 423 37.5 Q 422.9 43.9 418.5 46 L 413 47.5 L 418.5 50 L 422 48.5 Q 418.2 46.8 421.5 45 Q 423.8 45.8 423 43.5 L 424 43.5 L 424 45 Q 427.8 43.5 427 46.5 Q 424.3 47.6 425 51 L 427 51.5 L 424 52.5 L 423 56.5 L 423.5 58 Q 421.3 57.3 422 59.5 L 419 59.5 L 417.5 57 L 415.5 58 L 413.5 57 L 411.5 57 L 407.5 55 L 404.5 56 L 397.5 52 L 392.5 53 L 389 52 L 388.5 54 L 388 52.5 L 388.5 51 L 385.5 52 L 384.5 50 L 382.5 51 L 379.5 50 L 377.5 50 L 373.5 49 L 369.5 50 L 366.5 48 L 356.5 48 Q 352.3 44.2 345 45 L 345 43 Q 340.9 44.3 342 41 L 347.5 40 L 351.5 41 L 353.5 40 L 356.5 41 L 360.5 40 L 362.5 40 L 364.5 41 L 369.5 40 L 372.5 41 L 376.5 41 L 395.5 41 L 397.5 40 L 399.5 40 Q 406.9 40.9 410.5 38 L 412.5 39 L 416.5 37 L 419 38 L 420.5 35 Z M 405 44 L 404 46 L 404 48 L 406 50 L 406 48 L 408 48 L 411 48 L 405 44 Z M 402 46 L 402 47 L 404 47 L 402 46 Z M 420 57 L 420 58 L 422 58 L 420 57 Z " /><path fill="rgb(14,13,13)" stroke="rgb(14,13,13)" stroke-width="1" opacity="1" d="M 86.5 37 Q 90.9 35.5 90 38.5 Q 92.5 40 89 41.5 Q 88.3 43.8 90.5 43 L 90.5 44 L 88.5 43 L 87 45.5 L 89.5 46 L 92 45.5 L 92.5 44 L 94 47.5 L 90 49.5 L 92 50 L 92 52.5 L 87.5 60 L 86 59.5 L 86.5 58 Q 81 59.5 79.5 57 L 77.5 58 L 75.5 56 L 72 56.5 L 71.5 55 L 70.5 57 L 70 55 L 64.5 53 L 59.5 54 L 56.5 53 L 55 53.5 L 55.5 52 L 53.5 53 L 53.5 51 L 51.5 52 L 46.5 50 L 44.5 50 Q 34.6 51.4 29.5 48 L 27.5 48 L 20.5 48 L 18.5 46 L 14.5 46 L 7 43 Q 5.9 40.3 8.5 41 L 10.5 41 Q 15.2 39.7 16.5 42 L 17.5 41 L 39.5 41 L 41.5 41 L 46.5 42 L 48.5 42 L 54.5 41 L 56.5 42 L 57.5 41 L 69.5 41 L 83.5 38 Q 85 40.5 86.5 37 Z M 71 45 L 67 48 L 72 50 L 72 47 L 74 47 L 71 45 Z M 85 46 L 79 48 Q 81 51 87 50 Q 88 52 89 50 L 88 49 Q 85 48 87 47 L 85 46 Z M 76 47 L 74 49 L 76 50 L 76 47 Z " /><path fill="rgb(14,13,13)" stroke="rgb(14,13,13)" stroke-width="1" opacity="1" d="M 196.5 38 L 199 38.5 L 196.5 39 L 196.5 38 Z " /><path fill="rgb(14,13,13)" stroke="rgb(14,13,13)" stroke-width="1" opacity="1" d="M 324.5 39 L 326 39 Q 324.5 42.8 327.5 42 L 329.5 41 Q 332.5 42.5 329.5 44 Q 325.1 45.5 326 42.5 L 323 41 L 325 44.5 L 322.5 43 L 321.5 44 Q 319.3 44.8 320 42.5 L 319.5 41 L 321 41.5 Q 320.2 38.9 323.5 40 L 324.5 39 Z " /><path fill="rgb(14,13,13)" stroke="rgb(14,13,13)" stroke-width="1" opacity="1" d="M 489.5 39 Q 492.8 37.9 492 40.5 L 493.5 43 L 491 43 Q 492.1 40.3 489.5 41 L 489.5 43 Q 488.3 40.8 487 43.5 L 486.5 46 Q 485 43.5 483.5 47 L 482 47.5 L 484.5 49 L 487 47.5 L 484.5 52 L 480.5 50 L 478 51 L 480 46 L 474.5 49 L 476 46.5 L 476.5 45 L 484.5 45 L 486.5 42 Q 483.2 43.1 484 40.5 L 486.5 40 L 489.5 39 Z " /><path fill="rgb(14,13,13)" stroke="rgb(14,13,13)" stroke-width="1" opacity="1" d="M 154.5 40 L 156.5 41 L 159 40 L 161 43.5 L 158 42.5 L 157.5 44 L 155.5 44 L 154 43.5 L 156 42.5 L 154.5 40 Z " /><path fill="rgb(14,13,13)" stroke="rgb(14,13,13)" stroke-width="1" opacity="1" d="M 470.5 43 L 471.5 45 L 469 44.5 L 470.5 43 Z " /><path fill="rgb(14,13,13)" stroke="rgb(14,13,13)" stroke-width="1" opacity="1" d="M 137.5 44 L 140.5 45 L 144.5 46 L 146 45.5 L 142.5 50 L 142 48.5 L 142.5 47 L 136 45.5 L 137.5 44 Z " /><path fill="rgb(14,13,13)" stroke="rgb(14,13,13)" stroke-width="1" opacity="1" d="M 302.5 44 L 310.5 46 L 312.5 45 L 314.5 45 L 317.5 46 L 320.5 45 L 320.5 46 Q 317.2 44.9 318 47.5 L 321 48.5 L 319 52 L 313 50.5 L 315 49.5 L 309.5 49 L 308 49.5 L 308 47.5 Q 308.9 44.5 304.5 46 L 302.5 44 Z M 312 46 L 311 48 L 313 47 L 312 46 Z " /><path fill="rgb(14,13,13)" stroke="rgb(14,13,13)" stroke-width="1" opacity="1" d="M 473.5 44 L 474.5 46 Q 471.7 46.7 473.5 44 Z " /><path fill="rgb(14,13,13)" stroke="rgb(14,13,13)" stroke-width="1" opacity="1" d="M 488 45 L 490 45.5 L 488 46.5 L 488 45 Z " /><path fill="rgb(14,13,13)" stroke="rgb(14,13,13)" stroke-width="1" opacity="1" d="M 147.5 46 L 151 46.5 L 149 47.5 L 152 48 L 152.5 46 L 153.5 48 Q 150.9 47.3 152 50 L 154 50.5 L 149 52 Q 150.8 47.5 145.5 49 L 147.5 46 Z " /><path fill="rgb(14,13,13)" stroke="rgb(14,13,13)" stroke-width="1" opacity="1" d="M 19.5 49 L 22 53.5 L 21 55.5 L 22 59.5 Q 20.6 62.6 15.5 62 Q 12.5 61.5 13 57.5 L 13.5 56 Q 10.8 56.6 12 50.5 L 14.5 50 L 19.5 51 L 19.5 49 Z " /><path fill="rgb(14,13,13)" stroke="rgb(14,13,13)" stroke-width="1" opacity="1" d="M 179.5 49 L 181.5 49 Q 184.1 48.3 183 51 L 185.5 51 L 187.5 50 L 188 52.5 L 189 57.5 L 185.5 62 L 180 60 L 179 57.5 L 179 55.5 L 178 50.5 L 179.5 49 Z " /><path fill="rgb(14,13,13)" stroke="rgb(14,13,13)" stroke-width="1" opacity="1" d="M 347.5 49 L 354 50 L 356 56.5 L 353.5 60 L 348.5 61 Q 345.5 60.5 346 56.5 Q 348.5 55 345 53.5 L 346 51.5 L 345.5 50 L 347.5 49 Z " /><path fill="rgb(14,13,13)" stroke="rgb(14,13,13)" stroke-width="1" opacity="1" d="M 147.5 50 L 148 52 L 145 51.5 L 147.5 50 Z " /><path fill="rgb(14,13,13)" stroke="rgb(14,13,13)" stroke-width="1" opacity="1" d="M 219.5 55 L 223.5 55 L 225 55.5 L 224 56.5 L 225.5 59 Q 223.3 58.3 224 60.5 L 221.5 62 L 219.5 59 L 218 59.5 L 219.5 55 Z " /><path fill="rgb(14,13,13)" stroke="rgb(14,13,13)" stroke-width="1" opacity="1" d="M 385 55 L 389.5 56 L 391.5 55 L 391.5 57 L 393 57.5 L 391.5 60 L 393 60.5 L 391.5 61 L 389.5 61 Q 386.2 62.1 387 59.5 Q 384.3 58.4 385 55 Z " /><path fill="rgb(14,13,13)" stroke="rgb(14,13,13)" stroke-width="1" opacity="1" d="M 51.5 56 L 55.5 57 L 58.5 56 Q 61.8 54.9 61 57.5 L 59.5 57 L 58 57.5 L 59 59.5 L 58 62 L 53 61.5 L 53.5 60 Q 51.3 60.8 52 58.5 L 52.5 57 L 51.5 56 Z " /><path fill="rgb(14,13,13)" stroke="rgb(14,13,13)" stroke-width="1" opacity="1" d="M 237.5 57 L 240 58.5 L 238.5 58 L 237.5 57 Z " /><path fill="rgb(14,13,13)" stroke="rgb(14,13,13)" stroke-width="1" opacity="1" d="M 122.5 58 L 123.5 60 L 122.5 58 Z " /><path fill="rgb(14,13,13)" stroke="rgb(14,13,13)" stroke-width="1" opacity="1" d="M 287.5 58 L 288.5 60 Q 285.7 60.7 287.5 58 Z " /><path fill="rgb(14,13,13)" stroke="rgb(14,13,13)" stroke-width="1" opacity="1" d="M 458.5 60 L 457.5 62 L 458.5 60 Z " /><path fill="rgb(123,122,122)" stroke="rgb(123,122,122)" stroke-width="1" opacity="1" d="M 470.5 3 L 469.5 5 Q 466.2 3.9 467 6.5 L 466 6.5 L 467.5 4 L 470.5 3 Z " /><path fill="rgb(123,122,122)" stroke="rgb(123,122,122)" stroke-width="1" opacity="1" d="M 133.5 4 L 136 5.5 L 133.5 7 L 133.5 4 Z " /><path fill="rgb(123,122,122)" stroke="rgb(123,122,122)" stroke-width="1" opacity="1" d="M 214.5 4 Q 212.7 6.2 217 8.5 L 216 9.5 Q 215.4 15.4 211.5 18 L 207.5 19 L 201.5 16 L 199.5 19 L 196.5 18 Q 194.8 20.8 189.5 20 L 188 19.5 L 190 22.5 L 186 21.5 Q 188.7 19.8 184.5 18 L 181 19.5 L 180.5 22 L 176.5 21 L 171.5 22 L 168.5 21 L 167 21.5 L 167 7.5 L 170.5 7 L 173.5 6 L 178.5 7 L 183.5 6 Q 185.3 9.8 187 6.5 L 186.5 5 L 189 6.5 L 189.5 5 L 192.5 6 L 199.5 7 L 208.5 5 L 210.5 5 L 214.5 4 Z " /><path fill="rgb(123,122,122)" stroke="rgb(123,122,122)" stroke-width="1" opacity="1" d="M 299.5 4 Q 301.8 3.3 301 5.5 L 299 6.5 L 299.5 4 Z " /><path fill="rgb(123,122,122)" stroke="rgb(123,122,122)" stroke-width="1" opacity="1" d="M 377.5 4 L 382.5 6 L 384 5.5 L 381 14.5 L 377.5 18 Q 376 15.5 374.5 19 L 370 18 Q 371.1 15.3 368.5 16 L 366.5 19 L 364 18.5 L 363.5 17 L 361.5 19 Q 355.5 18 353.5 21 L 351.5 18 L 348 18 L 347.5 21 L 334.5 21 L 333 21.5 L 333 6 L 343.5 6 L 345.5 7 L 346.5 6 Q 355.4 7.4 360.5 5 L 363.5 6 L 367.5 5 L 372.5 6 L 375.5 5 L 377 5.5 L 377.5 4 Z " /><path fill="rgb(123,122,122)" stroke="rgb(123,122,122)" stroke-width="1" opacity="1" d="M 44.5 5 L 50 7.5 L 49 9.5 L 49 11.5 Q 48.6 17.1 44.5 19 L 42.5 19 L 40.5 20 L 35.5 16 L 35 17.5 L 35.5 19 L 33.5 19 L 31.5 20 L 29 18.5 L 28.5 20 L 21 20 Q 22.1 22.7 19.5 22 Q 21.2 20 17.5 18 L 14 20.5 Q 14.9 23.5 10.5 22 L 8.5 22 L 0 22 L 0 7 L 6.5 7 L 7.5 6 L 12.5 8 L 13 6 L 18 6 L 18 7.5 L 19.5 7 L 30.5 6 L 32.5 7 L 35.5 6 L 38.5 7 L 41.5 6 Q 43 8.5 44.5 5 Z " /><path fill="rgb(123,122,122)" stroke="rgb(123,122,122)" stroke-width="1" opacity="1" d="M 110.5 7 L 112.5 9 L 119.5 9 L 124.5 11 L 129.5 9 L 131 14.5 L 129.5 14 Q 125.8 13.3 125 15.5 Q 126.3 19.7 121.5 18 Q 120 20.5 114.5 19 Q 113.2 16.8 108.5 18 L 103 13.5 L 103.5 12 Q 99.8 13.3 101 9.5 L 103.5 9 L 107.5 10 L 111 8.5 L 110.5 7 Z " /><path fill="rgb(123,122,122)" stroke="rgb(123,122,122)" stroke-width="1" opacity="1" d="M 277.5 7 L 278 9 L 291.5 10 L 298.5 8 L 298.5 9 Q 296.3 8.3 297 10.5 L 296 12.5 L 297.5 15 L 293.5 13 L 290.5 18 L 288.5 18 L 283.5 19 Q 281.8 16.3 275.5 18 L 267 11.5 Q 266.3 9.3 268.5 10 L 275.5 8 L 277 8.5 L 277.5 7 Z " /><path fill="rgb(123,122,122)" stroke="rgb(123,122,122)" stroke-width="1" opacity="1" d="M 444.5 7 L 452.5 9 Q 454 6.5 455.5 10 Q 460.1 10.6 461.5 8 L 464 8.5 L 462.5 14 L 459.5 13 Q 457 14.2 458 18 L 455.5 17 L 454.5 18 L 444.5 18 Q 437.8 15.8 434 10.5 L 438.5 8 L 441.5 9 L 444.5 7 Z " /><path fill="rgb(123,122,122)" stroke="rgb(123,122,122)" stroke-width="1" opacity="1" d="M 59.5 8 L 59 9.5 L 55.5 16 Q 53.3 15.3 54 11.5 Q 55.2 8.7 56.5 11 L 58 10.5 L 57.5 9 L 59.5 8 Z " /><path fill="rgb(123,122,122)" stroke="rgb(123,122,122)" stroke-width="1" opacity="1" d="M 134.5 8 L 133.5 10 L 134.5 8 Z " /><path fill="rgb(123,122,122)" stroke="rgb(123,122,122)" stroke-width="1" opacity="1" d="M 391.5 8 L 393 11.5 L 389.5 16 L 389 14 Q 386 15.3 387 11.5 L 391 9.5 L 391.5 8 Z " /><path fill="rgb(123,122,122)" stroke="rgb(123,122,122)" stroke-width="1" opacity="1" d="M 224 9 Q 227 7.8 226 11.5 L 222.5 16 L 220 14.5 L 221.5 11 Q 225.3 12 224 9 Z " /><path fill="rgb(123,122,122)" stroke="rgb(123,122,122)" stroke-width="1" opacity="1" d="M 228.5 10 L 230 10.5 L 228.5 13 Q 225.5 11.5 228.5 10 Z " /><path fill="rgb(123,122,122)" stroke="rgb(123,122,122)" stroke-width="1" opacity="1" d="M 237.5 11 L 238.5 13 L 237.5 11 Z " /><path fill="rgb(123,122,122)" stroke="rgb(123,122,122)" stroke-width="1" opacity="1" d="M 84.5 15 L 85.5 17 L 84.5 15 Z " /><path fill="rgb(123,122,122)" stroke="rgb(123,122,122)" stroke-width="1" opacity="1" d="M 131.5 16 L 134.5 19 L 138.5 20 L 140.5 19 Q 142 21.5 147.5 20 L 149 21.5 L 145 23 Q 144 26 147 25 L 147 28.5 L 147.5 30 L 144.5 29 Q 141.9 28.3 143 31 L 140.5 31 L 134.5 33 L 134.5 32 L 137 30.5 L 136 28.5 L 138 27.5 L 135.5 26 L 134 26.5 Q 134.8 24.3 132.5 25 L 131 25.5 L 133 20.5 L 130 19.5 L 131.5 16 Z " /><path fill="rgb(123,122,122)" stroke="rgb(123,122,122)" stroke-width="1" opacity="1" d="M 258.5 16 L 259 18.5 L 258 18.5 L 258.5 16 Z " /><path fill="rgb(123,122,122)" stroke="rgb(123,122,122)" stroke-width="1" opacity="1" d="M 297.5 16 L 300 17 L 300.5 19 L 307.5 19 L 308.5 20 L 315 20 L 314.5 23 L 312.5 23 L 311 23.5 L 313.5 25 L 315 24.5 L 313 27.5 L 313.5 29 L 311.5 29 L 308.5 31 Q 307 28.5 305.5 32 Q 301.3 33.3 303 28.5 L 304 26 Q 300.3 27.5 301 24.5 L 299.5 25 Q 296.2 26.1 297 23.5 L 299.5 20 L 297.5 19 L 296 19.5 Q 299.1 17.8 297.5 16 Z M 308 27 L 307 29 L 309 28 L 308 27 Z " /><path fill="rgb(123,122,122)" stroke="rgb(123,122,122)" stroke-width="1" opacity="1" d="M 464 16 Q 466.7 14.9 466 17.5 Q 467.2 20.3 468.5 18 L 483 20.5 L 477 24.5 L 478.5 25 L 481 23.5 Q 481.8 28.3 478.5 29 L 476.5 28 L 474.5 31 L 469 30.5 L 470.5 28 L 468 27.5 L 471 26.5 L 468 25.5 Q 468.8 23.3 466.5 24 L 465 21 L 468 20.5 L 463 18.5 L 464 16 Z M 472 27 L 472 29 L 475 29 Q 476 26 472 27 Z " /><path fill="rgb(123,122,122)" stroke="rgb(123,122,122)" stroke-width="1" opacity="1" d="M 252.5 19 L 251.5 21 L 250 20.5 L 252.5 19 Z " /><path fill="rgb(123,122,122)" stroke="rgb(123,122,122)" stroke-width="1" opacity="1" d="M 83.5 20 Q 85.8 19.3 85 21.5 L 83.5 20 Z " /><path fill="rgb(123,122,122)" stroke="rgb(123,122,122)" stroke-width="1" opacity="1" d="M 462.5 20 L 463.5 22 L 462.5 20 Z " /><path fill="rgb(123,122,122)" stroke="rgb(123,122,122)" stroke-width="1" opacity="1" d="M 129.5 21 L 130.5 23 L 129.5 21 Z " /><path fill="rgb(123,122,122)" stroke="rgb(123,122,122)" stroke-width="1" opacity="1" d="M 57.5 24 L 58.5 26 L 57.5 24 Z " /><path fill="rgb(123,122,122)" stroke="rgb(123,122,122)" stroke-width="1" opacity="1" d="M 10.5 28 L 11 30.5 L 10 30.5 L 10.5 28 Z " /><path fill="rgb(123,122,122)" stroke="rgb(123,122,122)" stroke-width="1" opacity="1" d="M 445.5 28 L 447 31 L 444 30.5 L 445.5 28 Z " /><path fill="rgb(123,122,122)" stroke="rgb(123,122,122)" stroke-width="1" opacity="1" d="M 79.5 29 L 83 31.5 L 81.5 32 L 79 31.5 L 79.5 29 Z " /><path fill="rgb(123,122,122)" stroke="rgb(123,122,122)" stroke-width="1" opacity="1" d="M 112.5 29 L 113.5 31 Q 110.7 31.7 112.5 29 Z " /><path fill="rgb(123,122,122)" stroke="rgb(123,122,122)" stroke-width="1" opacity="1" d="M 246.5 29 L 248 32 Q 244.5 33.1 246.5 29 Z " /><path fill="rgb(123,122,122)" stroke="rgb(123,122,122)" stroke-width="1" opacity="1" d="M 279 29 L 281 29.5 L 279 30.5 L 279 29 Z " /><path fill="rgb(123,122,122)" stroke="rgb(123,122,122)" stroke-width="1" opacity="1" d="M 412 29 L 415 30.5 L 412 30.5 L 412 29 Z " /><path fill="rgb(123,122,122)" stroke="rgb(123,122,122)" stroke-width="1" opacity="1" d="M 107.5 30 Q 109.8 29.3 109 31.5 L 107.5 30 Z " /><path fill="rgb(123,122,122)" stroke="rgb(123,122,122)" stroke-width="1" opacity="1" d="M 381.5 30 Q 383.8 29.3 383 31.5 L 381.5 30 Z " /><path fill="rgb(123,122,122)" stroke="rgb(123,122,122)" stroke-width="1" opacity="1" d="M 274 31 Q 276.7 29.9 276 32.5 L 272.5 34 L 272.5 33 Q 275.1 33.7 274 31 Z " /><path fill="rgb(123,122,122)" stroke="rgb(123,122,122)" stroke-width="1" opacity="1" d="M 99.5 32 L 102 33.5 L 101.5 35 L 97 33.5 L 99.5 32 Z " /><path fill="rgb(123,122,122)" stroke="rgb(123,122,122)" stroke-width="1" opacity="1" d="M 104.5 32 L 106.5 35 Q 104.3 35.8 105 33.5 L 103 33.5 L 104.5 32 Z " /><path fill="rgb(123,122,122)" stroke="rgb(123,122,122)" stroke-width="1" opacity="1" d="M 119.5 32 L 118.5 34 L 116 33.5 L 119.5 32 Z " /><path fill="rgb(123,122,122)" stroke="rgb(123,122,122)" stroke-width="1" opacity="1" d="M 266.5 32 L 269.5 33 L 271 32.5 L 268 34.5 L 268.5 33 Q 265.5 33.5 266.5 32 Z " /><path fill="rgb(123,122,122)" stroke="rgb(123,122,122)" stroke-width="1" opacity="1" d="M 410.5 32 L 411 34 L 408 33.5 L 410.5 32 Z " /><path fill="rgb(123,122,122)" stroke="rgb(123,122,122)" stroke-width="1" opacity="1" d="M 431.5 32 L 435 32.5 Q 433.8 35.3 432.5 33 L 431.5 32 Z " /><path fill="rgb(123,122,122)" stroke="rgb(123,122,122)" stroke-width="1" opacity="1" d="M 440 32 L 443 32.5 L 440.5 34 L 440 32 Z " /><path fill="rgb(123,122,122)" stroke="rgb(123,122,122)" stroke-width="1" opacity="1" d="M 47.5 33 Q 49.8 32.3 49 34.5 L 47.5 33 Z " /><path fill="rgb(123,122,122)" stroke="rgb(123,122,122)" stroke-width="1" opacity="1" d="M 70.5 34 L 72.5 35 L 74.5 34 L 74.5 35 Q 72.3 34.3 73 36.5 L 71.5 36 Q 68.7 36.7 70.5 34 Z " /><path fill="rgb(123,122,122)" stroke="rgb(123,122,122)" stroke-width="1" opacity="1" d="M 237.5 34 L 238 36 L 236 35.5 L 237.5 34 Z " /><path fill="rgb(123,122,122)" stroke="rgb(123,122,122)" stroke-width="1" opacity="1" d="M 404.5 34 L 403.5 36 L 404.5 34 Z " /><path fill="rgb(123,122,122)" stroke="rgb(123,122,122)" stroke-width="1" opacity="1" d="M 173.5 35 L 176 36 L 175.5 38 L 173.5 35 Z " /><path fill="rgb(123,122,122)" stroke="rgb(123,122,122)" stroke-width="1" opacity="1" d="M 340.5 35 L 343 36.5 L 341.5 37 L 340.5 35 Z " /><path fill="rgb(123,122,122)" stroke="rgb(123,122,122)" stroke-width="1" opacity="1" d="M 491.5 35 Q 494.3 36.3 492 37.5 Q 492.8 40.1 489.5 39 L 487.5 38 L 486 38.5 Q 485.3 36.3 487.5 37 L 489.5 37 Q 492 37.7 491.5 35 Z " /><path fill="rgb(123,122,122)" stroke="rgb(123,122,122)" stroke-width="1" opacity="1" d="M 7.5 36 L 10 36.5 Q 10.8 38.8 8.5 38 L 7.5 36 Z " /><path fill="rgb(123,122,122)" stroke="rgb(123,122,122)" stroke-width="1" opacity="1" d="M 320 36 L 322.5 37 Q 323.8 34.8 325 37.5 L 324.5 39 L 322.5 39 L 319.5 40 L 320 38.5 L 320 36 Z " /><path fill="rgb(123,122,122)" stroke="rgb(123,122,122)" stroke-width="1" opacity="1" d="M 381.5 36 Q 383.8 35.3 383 37.5 L 381.5 36 Z " /><path fill="rgb(123,122,122)" stroke="rgb(123,122,122)" stroke-width="1" opacity="1" d="M 48.5 37 L 47.5 39 L 48.5 37 Z " /><path fill="rgb(123,122,122)" stroke="rgb(123,122,122)" stroke-width="1" opacity="1" d="M 154.5 37 Q 160.3 35.3 159 39 L 153 40 L 154.5 37 Z " /><path fill="rgb(123,122,122)" stroke="rgb(123,122,122)" stroke-width="1" opacity="1" d="M 166.5 37 L 167 41.5 L 166 41.5 L 166.5 37 Z " /><path fill="rgb(123,122,122)" stroke="rgb(123,122,122)" stroke-width="1" opacity="1" d="M 327.5 37 L 329 37.5 L 326.5 39 L 327.5 37 Z " /><path fill="rgb(123,122,122)" stroke="rgb(123,122,122)" stroke-width="1" opacity="1" d="M 171.5 38 L 172 40.5 L 171 40.5 L 171.5 38 Z " /><path fill="rgb(123,122,122)" stroke="rgb(123,122,122)" stroke-width="1" opacity="1" d="M 160.5 40 L 163 40.5 L 160.5 41 L 160.5 40 Z " /><path fill="rgb(123,122,122)" stroke="rgb(123,122,122)" stroke-width="1" opacity="1" d="M 267.5 42 L 270 42.5 L 268.5 44 L 266 43.5 L 267.5 42 Z " /><path fill="rgb(123,122,122)" stroke="rgb(123,122,122)" stroke-width="1" opacity="1" d="M 433.5 42 Q 438.6 41.4 440 44.5 L 438.5 44 L 434.5 43 L 432.5 44 L 433.5 42 Z " /><path fill="rgb(123,122,122)" stroke="rgb(123,122,122)" stroke-width="1" opacity="1" d="M 495.5 42 L 496 43.5 L 494 44.5 L 495.5 42 Z " /><path fill="rgb(123,122,122)" stroke="rgb(123,122,122)" stroke-width="1" opacity="1" d="M 101.5 43 L 103 43.5 L 97.5 46 L 98.5 44 L 101.5 43 Z " /><path fill="rgb(123,122,122)" stroke="rgb(123,122,122)" stroke-width="1" opacity="1" d="M 166.5 43 L 167 50.5 L 166 50.5 L 166.5 43 Z " /><path fill="rgb(123,122,122)" stroke="rgb(123,122,122)" stroke-width="1" opacity="1" d="M 171.5 43 L 178 46.5 L 177.5 49 L 177 47 L 172 48 L 171.5 43 Z " /><path fill="rgb(123,122,122)" stroke="rgb(123,122,122)" stroke-width="1" opacity="1" d="M 262.5 43 L 265 43.5 L 262.5 44 L 262.5 43 Z " /><path fill="rgb(123,122,122)" stroke="rgb(123,122,122)" stroke-width="1" opacity="1" d="M 338.5 43 L 340.5 45 L 348 46.5 L 344.5 48 L 341.5 47 L 339.5 48 Q 336.8 46.8 338.5 43 Z " /><path fill="rgb(123,122,122)" stroke="rgb(123,122,122)" stroke-width="1" opacity="1" d="M 443 43 L 447.5 44 Q 448.7 41.8 450 44.5 L 447 45 L 446.5 47 L 443 44.5 L 443 43 Z " /><path fill="rgb(123,122,122)" stroke="rgb(123,122,122)" stroke-width="1" opacity="1" d="M 108 44 L 112 44.5 L 111.5 47 L 109 45.5 L 108.5 47 L 108 44 Z " /><path fill="rgb(123,122,122)" stroke="rgb(123,122,122)" stroke-width="1" opacity="1" d="M 114.5 44 L 119 45.5 Q 118.3 47.8 114.5 47 Q 111.5 45.5 114.5 44 Z " /><path fill="rgb(123,122,122)" stroke="rgb(123,122,122)" stroke-width="1" opacity="1" d="M 275.5 44 L 277 44.5 L 273.5 46 L 273.5 45 L 275.5 44 Z " /><path fill="rgb(123,122,122)" stroke="rgb(123,122,122)" stroke-width="1" opacity="1" d="M 278 44 L 287 45 Q 288.1 47.7 285.5 47 L 282.5 46 L 280.5 46 Q 276.8 47 278 44 Z " /><path fill="rgb(123,122,122)" stroke="rgb(123,122,122)" stroke-width="1" opacity="1" d="M 7.5 45 L 11 46 Q 9.9 48.7 12.5 48 L 12.5 49 Q 9.2 50.1 10 47.5 L 7.5 49 L 5 47.5 Q 4.3 45.3 6.5 46 L 7.5 45 Z " /><path fill="rgb(123,122,122)" stroke="rgb(123,122,122)" stroke-width="1" opacity="1" d="M 105.5 45 Q 107.8 44.3 107 46.5 L 105.5 45 Z " /><path fill="rgb(123,122,122)" stroke="rgb(123,122,122)" stroke-width="1" opacity="1" d="M 155.5 45 L 154.5 47 L 153 46.5 L 155.5 45 Z " /><path fill="rgb(123,122,122)" stroke="rgb(123,122,122)" stroke-width="1" opacity="1" d="M 262.5 45 L 265 45.5 Q 263.3 49.7 261.5 47 L 260 46.5 L 262.5 45 Z " /><path fill="rgb(123,122,122)" stroke="rgb(123,122,122)" stroke-width="1" opacity="1" d="M 322.5 45 L 323.5 47 L 320.5 48 L 322.5 45 Z " /><path fill="rgb(123,122,122)" stroke="rgb(123,122,122)" stroke-width="1" opacity="1" d="M 429.5 45 L 431 45.5 Q 427.9 47.3 429.5 49 Q 426.9 49.8 428 46.5 L 429.5 45 Z " /><path fill="rgb(123,122,122)" stroke="rgb(123,122,122)" stroke-width="1" opacity="1" d="M 250.5 46 Q 252.8 45.3 252 47.5 L 250.5 46 Z " /><path fill="rgb(123,122,122)" stroke="rgb(123,122,122)" stroke-width="1" opacity="1" d="M 325.5 47 L 326 49.5 L 324 48.5 L 325.5 47 Z " /><path fill="rgb(123,122,122)" stroke="rgb(123,122,122)" stroke-width="1" opacity="1" d="M 329.5 47 L 330 49.5 L 328 48.5 L 329.5 47 Z " /><path fill="rgb(123,122,122)" stroke="rgb(123,122,122)" stroke-width="1" opacity="1" d="M 487.5 47 L 491 47.5 L 487.5 48 L 487.5 47 Z " /><path fill="rgb(123,122,122)" stroke="rgb(123,122,122)" stroke-width="1" opacity="1" d="M 140.5 48 L 141.5 51 L 144.5 50 L 145 52.5 L 145.5 54 L 147.5 54 L 150.5 53 L 152.5 53 L 154 53.5 L 153.5 55 L 156.5 53 L 157.5 55 L 155 55.5 L 161 56 Q 159.8 59 163.5 58 L 163.5 57 L 162 56.5 L 166 54.5 L 166.5 52 L 167 61.5 L 166 61.5 L 164.5 59 L 159.5 62 L 156.5 60 L 156.5 62 L 141.5 62 L 140.5 61 L 137 62 Q 135.6 58 142.5 60 L 143.5 58 L 141.5 59 L 139 58.5 L 140 57.5 L 138.5 55 Q 141.1 55.7 140 53 L 137 54.5 L 136.5 58 L 134 57.5 L 134.5 56 Q 132.3 55.3 133 57.5 L 133 59.5 L 133.5 61 L 135 60.5 Q 135.8 62.8 133.5 62 L 131.5 62 L 129 60.5 L 130.5 61 Q 133.1 61.7 132 59 Q 129.3 60.1 130 57.5 L 133 55.5 L 131 52 L 137.5 49 L 140 50 L 140.5 48 Z M 134 53 L 135 55 L 137 54 L 134 53 Z M 141 55 L 142 57 L 144 57 L 141 55 Z M 155 58 L 153 60 L 156 60 L 155 58 Z M 159 58 L 159 60 L 161 59 L 159 58 Z " /><path fill="rgb(123,122,122)" stroke="rgb(123,122,122)" stroke-width="1" opacity="1" d="M 160.5 48 L 161 50.5 L 160 50.5 L 160.5 48 Z " /><path fill="rgb(123,122,122)" stroke="rgb(123,122,122)" stroke-width="1" opacity="1" d="M 471.5 48 L 478 51.5 L 478.5 53 L 482.5 52 L 484.5 53 L 488 50.5 Q 487.3 52.8 489.5 52 L 491 54.5 L 490.5 56 L 493.5 54 Q 494.9 57.3 500 56 L 499.5 62 L 496.5 57 Q 493.9 56.2 495 59.5 L 496 62 Q 491.8 63 490.5 60 L 479.5 62 L 477.5 61 L 475.5 62 L 470 61 Q 468.9 58.3 471.5 59 L 474 58 Q 475.1 55.3 472.5 56 L 466 58.5 L 469 60.5 L 467.5 61 L 465 60.5 L 464.5 59 L 458.5 62 L 458.5 61 L 464 58.5 L 463 56.5 L 466 55.5 L 464 54.5 L 466 53.5 L 464.5 51 L 469.5 49 L 471.5 50 L 471.5 48 Z M 472 52 Q 469 53 471 55 L 468 55 L 468 56 Q 473 58 472 54 L 474 54 L 472 52 Z M 483 54 L 483 55 L 486 55 L 483 54 Z M 476 57 L 474 59 L 477 59 Q 478 56 476 57 Z M 487 57 L 487 59 L 492 58 L 487 57 Z " /><path fill="rgb(123,122,122)" stroke="rgb(123,122,122)" stroke-width="1" opacity="1" d="M 304.5 49 L 306.5 50 L 308 49.5 Q 307.2 52.1 310.5 51 L 315 52 Q 313.5 55.8 316.5 55 L 318 55.5 Q 316.8 51.8 320.5 53 L 322.5 49 L 322.5 51 Q 328.6 49.8 328 52.5 L 330 52.5 L 328 55.5 L 329.5 55 L 332.5 54 L 332.5 55 Q 329.9 54.3 331 57 Q 334 55.8 333 59.5 Q 331.3 57.9 329.5 61 L 325.5 62 L 323.5 62 L 318.5 61 L 317.5 62 L 308 62 L 310 57.5 L 307 59.5 Q 307.8 61.8 305.5 61 Q 304.3 63.3 303 60.5 L 305.5 57 L 300.5 56 L 299 58.5 L 302 59.5 Q 300.8 62.3 299.5 60 Q 296.9 59.3 298 62 L 296 62 Q 295 59 298 60 L 298 57.5 L 297.5 56 L 299 56.5 L 298 51.5 L 299.5 52 L 301 51.5 L 300.5 50 L 304.5 49 Z M 323 52 L 327 56 L 328 54 L 323 52 Z M 305 53 L 305 55 L 307 54 L 305 53 Z M 315 57 L 315 59 L 320 59 L 315 57 Z M 329 57 L 330 58 L 331 59 Q 332 56 329 57 Z M 326 58 Q 323 60 326 61 L 328 61 L 327 60 L 327 59 L 326 58 Z " /><path fill="rgb(123,122,122)" stroke="rgb(123,122,122)" stroke-width="1" opacity="1" d="M 189.5 50 L 193 50.5 L 188.5 52 L 189.5 50 Z " /><path fill="rgb(123,122,122)" stroke="rgb(123,122,122)" stroke-width="1" opacity="1" d="M 359.5 50 L 360 52 L 358 51.5 L 359.5 50 Z " /><path fill="rgb(123,122,122)" stroke="rgb(123,122,122)" stroke-width="1" opacity="1" d="M 494.5 50 L 493.5 52 L 492 51.5 L 494.5 50 Z " /><path fill="rgb(123,122,122)" stroke="rgb(123,122,122)" stroke-width="1" opacity="1" d="M 26.5 51 L 26.5 54 Q 24.3 54.8 25 52.5 L 26.5 51 Z " /><path fill="rgb(123,122,122)" stroke="rgb(123,122,122)" stroke-width="1" opacity="1" d="M 29.5 51 Q 32.5 52.5 29.5 54 Q 26.5 52.5 29.5 51 Z " /><path fill="rgb(123,122,122)" stroke="rgb(123,122,122)" stroke-width="1" opacity="1" d="M 198.5 51 Q 201.1 50.3 200 53 L 196 52.5 L 198.5 51 Z " /><path fill="rgb(123,122,122)" stroke="rgb(123,122,122)" stroke-width="1" opacity="1" d="M 362 51 Q 367.3 50.3 370 53.5 L 367.5 54 L 364.5 52 L 361.5 54 L 362 52.5 L 362 51 Z " /><path fill="rgb(123,122,122)" stroke="rgb(123,122,122)" stroke-width="1" opacity="1" d="M 427.5 51 L 427.5 56 L 425.5 55 L 423.5 56 L 423.5 55 Q 425.8 55.8 425 53.5 L 427.5 51 Z " /><path fill="rgb(123,122,122)" stroke="rgb(123,122,122)" stroke-width="1" opacity="1" d="M 34.5 52 L 35.5 54 L 32 53.5 L 34.5 52 Z " /><path fill="rgb(123,122,122)" stroke="rgb(123,122,122)" stroke-width="1" opacity="1" d="M 162.5 52 L 161.5 54 L 162.5 52 Z " /><path fill="rgb(123,122,122)" stroke="rgb(123,122,122)" stroke-width="1" opacity="1" d="M 285.5 52 L 287 55.5 L 285 54.5 L 285.5 52 Z " /><path fill="rgb(123,122,122)" stroke="rgb(123,122,122)" stroke-width="1" opacity="1" d="M 381.5 52 L 380.5 56 L 377.5 55 L 374.5 57 L 374.5 55 L 372 54.5 Q 373.8 51.3 375.5 55 L 381.5 52 Z " /><path fill="rgb(123,122,122)" stroke="rgb(123,122,122)" stroke-width="1" opacity="1" d="M 496 52 L 498 52.5 L 496 53.5 L 496 52 Z " /><path fill="rgb(123,122,122)" stroke="rgb(123,122,122)" stroke-width="1" opacity="1" d="M 188.5 53 L 189 55.5 L 188 55.5 L 188.5 53 Z " /><path fill="rgb(123,122,122)" stroke="rgb(123,122,122)" stroke-width="1" opacity="1" d="M 211.5 53 L 214.5 55 L 216 54.5 Q 216.8 56.8 214.5 56 L 212.5 56 L 210 55.5 L 212 54.5 L 211.5 53 Z " /><path fill="rgb(123,122,122)" stroke="rgb(123,122,122)" stroke-width="1" opacity="1" d="M 453.5 53 L 457 54.5 L 454 56.5 L 455 61 Q 451 62.4 453 55.5 Q 450.8 54.3 453.5 53 Z " /><path fill="rgb(123,122,122)" stroke="rgb(123,122,122)" stroke-width="1" opacity="1" d="M 44.5 54 L 44 55.5 L 45 57.5 L 43.5 57 L 41.5 58 L 42 56.5 Q 41.3 54.3 43.5 55 L 44.5 54 Z " /><path fill="rgb(123,122,122)" stroke="rgb(123,122,122)" stroke-width="1" opacity="1" d="M 49.5 54 L 48.5 56 L 47 55.5 L 49.5 54 Z " /><path fill="rgb(123,122,122)" stroke="rgb(123,122,122)" stroke-width="1" opacity="1" d="M 90.5 54 Q 93.5 55.5 90.5 57 L 90.5 54 Z " /><path fill="rgb(123,122,122)" stroke="rgb(123,122,122)" stroke-width="1" opacity="1" d="M 207.5 54 L 209 56.5 L 206.5 57 L 205 56.5 L 207.5 54 Z " /><path fill="rgb(123,122,122)" stroke="rgb(123,122,122)" stroke-width="1" opacity="1" d="M 257 54 L 259 54.5 L 258.5 56 L 261 56.5 L 258.5 57 L 257 54 Z " /><path fill="rgb(123,122,122)" stroke="rgb(123,122,122)" stroke-width="1" opacity="1" d="M 288.5 54 L 292 56.5 L 290.5 60 L 288 59 L 288.5 54 Z " /><path fill="rgb(123,122,122)" stroke="rgb(123,122,122)" stroke-width="1" opacity="1" d="M 123.5 55 L 126 56.5 L 122.5 58 L 123 56.5 L 123.5 55 Z " /><path fill="rgb(123,122,122)" stroke="rgb(123,122,122)" stroke-width="1" opacity="1" d="M 62.5 56 L 66.5 58 L 70 57.5 L 68.5 59 L 65.5 58 Q 61.7 58.5 62.5 56 Z " /><path fill="rgb(123,122,122)" stroke="rgb(123,122,122)" stroke-width="1" opacity="1" d="M 229.5 56 L 238 58.5 L 234.5 59 Q 233 55.5 231.5 58 L 229.5 56 Z " /><path fill="rgb(123,122,122)" stroke="rgb(123,122,122)" stroke-width="1" opacity="1" d="M 383.5 56 L 385 62 L 383 62 L 383.5 56 Z " /><path fill="rgb(123,122,122)" stroke="rgb(123,122,122)" stroke-width="1" opacity="1" d="M 395.5 56 Q 401.5 54.5 403 57.5 L 400.5 58 L 395.5 57 L 395.5 56 Z " /><path fill="rgb(123,122,122)" stroke="rgb(123,122,122)" stroke-width="1" opacity="1" d="M 456.5 56 L 457.5 58 L 456.5 56 Z " /><path fill="rgb(123,122,122)" stroke="rgb(123,122,122)" stroke-width="1" opacity="1" d="M 225.5 57 Q 229.7 58.7 227 60.5 Q 227.8 63.1 224.5 62 L 224.5 61 L 227 59.5 L 225.5 57 Z " /><path fill="rgb(123,122,122)" stroke="rgb(123,122,122)" stroke-width="1" opacity="1" d="M 286.5 57 L 287 60 L 289 60.5 L 286 61 L 286.5 57 Z " /><path fill="rgb(123,122,122)" stroke="rgb(123,122,122)" stroke-width="1" opacity="1" d="M 355.5 57 L 356 60 L 354 59.5 L 355.5 57 Z " /><path fill="rgb(123,122,122)" stroke="rgb(123,122,122)" stroke-width="1" opacity="1" d="M 359.5 57 L 360 59 L 358 58.5 L 359.5 57 Z " /><path fill="rgb(123,122,122)" stroke="rgb(123,122,122)" stroke-width="1" opacity="1" d="M 409.5 57 L 410 59 L 416.5 60 L 418 61.5 L 412.5 62 L 409.5 60 L 408 60.5 L 409.5 57 Z " /><path fill="rgb(123,122,122)" stroke="rgb(123,122,122)" stroke-width="1" opacity="1" d="M 25.5 58 L 27.5 59 L 29 58.5 L 26.5 60 L 25.5 58 Z " /><path fill="rgb(123,122,122)" stroke="rgb(123,122,122)" stroke-width="1" opacity="1" d="M 60.5 58 L 61 60 L 59 59.5 L 60.5 58 Z " /><path fill="rgb(123,122,122)" stroke="rgb(123,122,122)" stroke-width="1" opacity="1" d="M 90 58 L 93 59.5 Q 93.8 61.8 91.5 61 L 89.5 62 L 89.5 61 L 91 60.5 L 90 58 Z " /><path fill="rgb(123,122,122)" stroke="rgb(123,122,122)" stroke-width="1" opacity="1" d="M 120.5 58 L 120.5 60 L 123.5 61 L 126 59.5 Q 127.3 63.7 122.5 62 L 119 61 L 120.5 58 Z " /><path fill="rgb(123,122,122)" stroke="rgb(123,122,122)" stroke-width="1" opacity="1" d="M 245.5 58 L 247.5 61 L 239.5 62 L 239.5 61 L 246 59.5 L 245.5 58 Z " /><path fill="rgb(123,122,122)" stroke="rgb(123,122,122)" stroke-width="1" opacity="1" d="M 256 58 Q 258.7 56.9 258 59.5 L 256 60.5 L 256 58 Z " /><path fill="rgb(123,122,122)" stroke="rgb(123,122,122)" stroke-width="1" opacity="1" d="M 404.5 58 L 407 58.5 L 404.5 59 L 404.5 58 Z " /><path fill="rgb(123,122,122)" stroke="rgb(123,122,122)" stroke-width="1" opacity="1" d="M 424.5 58 Q 427.1 57.3 426 60 L 420.5 62 L 420.5 61 L 424.5 58 Z " /><path fill="rgb(123,122,122)" stroke="rgb(123,122,122)" stroke-width="1" opacity="1" d="M 62.5 59 L 65 59.5 L 62.5 60 L 62.5 59 Z " /><path fill="rgb(123,122,122)" stroke="rgb(123,122,122)" stroke-width="1" opacity="1" d="M 457.5 59 L 459 59.5 L 457 60 L 456.5 62 L 456 60.5 L 457.5 59 Z " /><path fill="rgb(123,122,122)" stroke="rgb(123,122,122)" stroke-width="1" opacity="1" d="M 187.5 60 L 186.5 62 L 187.5 60 Z " /><path fill="rgb(123,122,122)" stroke="rgb(123,122,122)" stroke-width="1" opacity="1" d="M 58.5 61 L 61 61.5 L 58.5 62 L 58.5 61 Z " /><path fill="rgb(123,122,122)" stroke="rgb(123,122,122)" stroke-width="1" opacity="1" d="M 72.5 61 L 78 61.5 L 72.5 62 L 72.5 61 Z " /><path fill="rgb(123,122,122)" stroke="rgb(123,122,122)" stroke-width="1" opacity="1" d="M 79.5 61 L 84 61.5 L 79.5 62 L 79.5 61 Z " /><path fill="rgb(123,122,122)" stroke="rgb(123,122,122)" stroke-width="1" opacity="1" d="M 290.5 61 L 295 61.5 L 290.5 62 L 290.5 61 Z " /><path fill="rgb(230,232,230)" stroke="rgb(230,232,230)" stroke-width="1" opacity="1" d="M 0 0 L 137 0.5 L 136 5 L 133.5 4 L 133 6.5 L 134 9 L 122.5 11 L 119.5 9 Q 113.3 10.8 111.5 8 L 107.5 10 L 103.5 9 L 101 9.5 Q 99.8 13.3 103.5 12 L 104.5 15 L 108.5 18 L 120.5 19 L 122.5 18 L 119 22.5 L 119 30.5 L 120 31.5 Q 118.8 34 115 33 Q 116.5 29.2 113.5 30 Q 112.3 27.8 111 30.5 Q 111.7 33.1 109 32 Q 110.1 29.3 107.5 30 L 102.5 34 Q 101.4 31.3 98 32 L 98 28.5 L 92 19.5 L 92 15 L 88 15 L 88 16.5 L 87.5 19 L 83 20.5 L 84 21.5 L 84 29.5 L 81.5 31 L 79 29.5 Q 80.7 34.3 76.5 33 L 71.5 35 L 70 34.5 L 69.5 36 L 67.5 33 Q 62.3 34.3 61 31.5 L 57 23.5 L 58 21.5 Q 56.2 17.3 54.5 20 Q 51.2 18.9 52 21.5 L 51 24 L 48 25.5 Q 47.3 28.1 50 27 L 50 29.5 L 49 33 L 46.5 34 Q 44.8 31.3 38.5 33 Q 36.8 36.5 31 35 L 29.5 38 L 28 37.5 L 28 25.5 L 21 21.5 L 21 20 L 28.5 20 L 29 18.5 L 31.5 20 L 32.5 19 L 35 17.5 L 35.5 16 L 40.5 20 L 43.5 18 L 44.5 19 L 48 15.5 L 50 10.5 L 50 8.5 L 48.5 6 L 44.5 5 Q 43 8.5 41.5 6 L 38.5 7 L 35.5 6 L 31.5 7 L 30.5 6 L 22.5 6 L 18.5 8 L 18 6 L 13 6 L 13 7.5 L 11.5 7 L 7.5 6 L 6.5 7 L 0 7 L 0 0 Z M 58 9 L 58 11 L 57 11 Q 55 9 54 12 Q 53 15 56 16 L 59 12 Q 60 8 58 9 Z M 85 15 L 86 17 Q 87 14 85 15 Z " /><path fill="rgb(230,232,230)" stroke="rgb(230,232,230)" stroke-width="1" opacity="1" d="M 167 0 L 304 0.5 L 303 5 L 299.5 4 L 299.5 7 L 301 7.5 Q 299.8 10.3 298.5 8 L 287.5 10 L 286.5 9 L 278 9 L 277.5 7 L 276.5 9 L 274.5 9 Q 269.1 8.4 267 10 L 267.5 12 L 269 11.5 L 268.5 13 L 275.5 18 Q 281.8 16.3 283.5 19 L 289.5 17 L 289 18.5 L 287 21.5 L 285 24.5 L 286 25.5 L 286 33 Q 282.2 34 281 31.5 Q 283.2 30.3 280.5 29 L 276.5 32 L 274.5 29 L 269.5 33 L 264 32 L 264 27.5 L 262 27 L 262 24.5 L 257.5 14 L 254 15 L 254 19 L 252.5 19 L 250 20.5 L 251 21.5 L 251 29.5 L 248.5 31 L 246 29.5 L 244.5 33 L 238.5 35 L 234.5 33 Q 228.3 34.3 227 30.5 L 226 25 Q 222.3 26.4 224 20.5 L 220.5 19 L 216.5 24 Q 213.5 23.2 215 27 Q 217.7 25.9 217 28.5 L 216 33 L 213.5 34 L 207.5 32 Q 205.2 34.7 199.5 34 L 195.5 38 L 194 30.5 L 195 25.5 L 188.5 21 L 187 21.5 L 188.5 19 L 193.5 20 L 197.5 18 L 199.5 19 L 202.5 15 L 203.5 18 L 208.5 19 L 214 15.5 L 217 8.5 Q 216.3 4.3 210.5 5 L 207.5 6 L 197.5 7 L 191.5 5 L 189 5.5 L 188.5 7 Q 187 4.5 185.5 8 L 183.5 6 L 176.5 7 L 173.5 6 L 170.5 7 L 167 7 L 167 0 Z M 224 9 Q 225 12 222 11 L 220 15 L 223 16 L 226 12 Q 227 8 224 9 Z M 229 10 Q 226 12 229 13 L 230 11 L 229 10 Z " /><path fill="rgb(230,232,230)" stroke="rgb(230,232,230)" stroke-width="1" opacity="1" d="M 333 0 L 470 0.5 L 468.5 4 L 466 5.5 L 467 8.5 L 465.5 8 L 462.5 9 L 460.5 9 L 455.5 10 Q 454 6.5 452.5 9 L 444.5 7 L 439.5 9 L 437.5 9 L 434 10.5 Q 438.8 19.8 454.5 18 L 456 17.5 L 452 22.5 L 452 29.5 L 453 31.5 L 449.5 33 L 447.5 29 L 445.5 28 L 443.5 31 Q 440.9 31.7 442 29 L 440 29 Q 441.1 31.7 438.5 31 L 435.5 33 L 431 32 L 431 27.5 L 425 18.5 L 425 14 Q 419.4 11.8 421 17.5 L 417 22.5 Q 418.8 29.3 415.5 31 L 412 29 L 413 31.5 L 405.5 35 L 403.5 35 Q 400.5 35.7 402 32 L 397.5 32 L 395 33 L 389.5 19 Q 385.8 18.3 385 20.5 L 381 25.5 L 383 26 L 383 30 L 381.5 30 L 382 31.5 Q 382.8 34.1 379.5 33 L 377.5 32 L 375.5 32 Q 371.3 31.3 370.5 34 L 365.5 34 L 361.5 37 L 362 35.5 L 361 24.5 L 359.5 23 L 354 22 Q 352.9 19.3 355.5 20 Q 356.8 17.8 361.5 19 L 363.5 17 L 364.5 19 L 367 18.5 L 368.5 16 Q 371.1 15.3 370 18 L 372.5 18 L 374.5 19 Q 376 15.5 377.5 18 L 381 14.5 L 383 6 L 377.5 4 L 376.5 6 L 373.5 5 L 368.5 6 L 366.5 6 L 362.5 5 L 360.5 5 L 344.5 7 L 343.5 6 L 333 6 L 333 0 Z M 392 8 L 391 10 L 387 12 Q 386 15 389 14 L 390 16 L 391 14 L 391 12 L 393 12 L 392 8 Z M 418 14 Q 417 17 420 16 Q 421 13 418 14 Z " /><path fill="rgb(230,232,230)" stroke="rgb(230,232,230)" stroke-width="1" opacity="1" d="M 131.5 19 L 133 21.5 L 132 25 L 134 25.5 L 132.5 26 L 129 20.5 L 131.5 19 Z " /><path fill="rgb(230,232,230)" stroke="rgb(230,232,230)" stroke-width="1" opacity="1" d="M 297.5 19 L 300 20.5 Q 296.9 22.2 298.5 24 L 296 20.5 L 297.5 19 Z " /><path fill="rgb(230,232,230)" stroke="rgb(230,232,230)" stroke-width="1" opacity="1" d="M 463 19 Q 466.8 18 468 20.5 L 465 21 L 466.5 24 Q 468.8 23.3 468 25.5 L 466.5 25 Q 462.3 26.3 464 21.5 L 463 19 Z " /><path fill="rgb(230,232,230)" stroke="rgb(230,232,230)" stroke-width="1" opacity="1" d="M 9.5 21 L 14 22.5 L 11 24 L 10 31.5 L 10 33.5 L 8.5 37 L 5 35 L 4 37.5 L 5 38.5 L 5 47.5 L 6.5 49 L 8 48.5 L 7.5 47 L 10 47.5 L 12 52.5 L 11 55.5 L 14 61.5 L 0 62 L 0 22.5 L 0.5 22 L 8.5 22 L 9.5 21 Z " /><path fill="rgb(230,232,230)" stroke="rgb(230,232,230)" stroke-width="1" opacity="1" d="M 168.5 21 L 175.5 22 L 180 21 L 177 25.5 L 177 36 Q 173.6 36.8 172.5 34 Q 169.8 35.3 171 40.5 L 172 42.5 L 171 45.5 L 172 48 L 177 47 L 178 49.5 L 178 51.5 Q 177.1 58.3 179 61 L 182 61.5 L 167 62 L 167 22.5 L 168.5 21 Z " /><path fill="rgb(230,232,230)" stroke="rgb(230,232,230)" stroke-width="1" opacity="1" d="M 334.5 21 L 347 21.5 L 344 24.5 Q 345.1 32.7 343 36 L 338 34 L 338 46.5 L 339.5 48 L 344 47 L 345 51.5 L 344 53.5 L 344 55.5 L 346.5 60 L 349 61.5 L 333 62 L 333 22.5 L 334.5 21 Z " /><path fill="rgb(230,232,230)" stroke="rgb(230,232,230)" stroke-width="1" opacity="1" d="M 300.5 24 L 301 26 L 299 25.5 L 300.5 24 Z " /><path fill="rgb(230,232,230)" stroke="rgb(230,232,230)" stroke-width="1" opacity="1" d="M 21.5 26 L 26 28.5 Q 27.5 32.9 24.5 32 L 22 33 L 21.5 26 Z " /><path fill="rgb(230,232,230)" stroke="rgb(230,232,230)" stroke-width="1" opacity="1" d="M 188 26 L 192 27.5 L 193 30.5 L 189.5 33 Q 186.5 31.4 188 26 Z " /><path fill="rgb(230,232,230)" stroke="rgb(230,232,230)" stroke-width="1" opacity="1" d="M 354.5 26 Q 361.3 23.8 359 30.5 Q 357 35 355 31.5 L 354.5 26 Z " /><path fill="rgb(230,232,230)" stroke="rgb(230,232,230)" stroke-width="1" opacity="1" d="M 134.5 28 L 137 29.5 L 135.5 32 Q 130.1 32.9 128 30.5 L 134.5 28 Z " /><path fill="rgb(230,232,230)" stroke="rgb(230,232,230)" stroke-width="1" opacity="1" d="M 300.5 28 Q 305.1 26.8 303 32 L 295 31 Q 293.6 27.3 299.5 29 L 300.5 28 Z " /><path fill="rgb(230,232,230)" stroke="rgb(230,232,230)" stroke-width="1" opacity="1" d="M 466.5 28 L 471 28.5 Q 467.9 30.3 469.5 32 L 462 31 Q 460.7 27.7 465.5 29 L 466.5 28 Z " /><path fill="rgb(230,232,230)" stroke="rgb(230,232,230)" stroke-width="1" opacity="1" d="M 265.5 43 L 270.5 44 L 273 44 Q 271.8 47 275.5 46 L 278 44.5 Q 277.2 47.1 280.5 46 L 282.5 46 L 286 47.5 L 287 49.5 L 285 52.5 L 286.5 56 Q 288.8 55.3 288 57.5 L 286 57.5 Q 284.3 62.8 289.5 61 L 289.5 62 L 256 61.5 L 258 61 Q 255.9 55.8 260.5 57 L 260.5 56 L 258 55.5 L 260 51 Q 263 52.3 262 48.5 L 264.5 45 L 263 44.5 L 265.5 43 Z " /><path fill="rgb(230,232,230)" stroke="rgb(230,232,230)" stroke-width="1" opacity="1" d="M 434.5 43 L 441.5 45 Q 443 42.5 444.5 46 L 446.5 47 L 447 45 L 451.5 44 L 454 49.5 L 452 50 L 453 61 Q 455.7 62.1 455 59.5 L 454 56.5 L 456 55.5 L 458 58.5 L 456 62 L 423 61.5 L 426 60 L 426 58 Q 423.3 59.1 424 56.5 Q 425.3 53.7 426.5 56 L 428 55.5 L 427 50.5 Q 426.2 47.9 429.5 49 L 430.5 44 L 434.5 43 Z " /><path fill="rgb(230,232,230)" stroke="rgb(230,232,230)" stroke-width="1" opacity="1" d="M 101.5 44 L 106 44.5 Q 103.8 45.8 106.5 47 L 109 46.5 L 109.5 45 L 112.5 46 L 117.5 47 L 120 46 L 119 55.5 L 120 58.5 L 119 61 L 122 61.5 L 91.5 62 L 91.5 61 Q 93.8 61.8 93 59.5 L 91.5 57 L 94 58 L 95 55.5 L 93 52.5 L 93.5 50 L 95.5 51 L 96 49.5 L 96 47.5 Q 95.3 45.3 97.5 46 L 101.5 44 Z " /><path fill="rgb(230,232,230)" stroke="rgb(230,232,230)" stroke-width="1" opacity="1" d="M 416.5 46 L 418 49 L 414 47.5 L 416.5 46 Z " /><path fill="rgb(230,232,230)" stroke="rgb(230,232,230)" stroke-width="1" opacity="1" d="M 81 47 L 85 48.5 L 81 49 L 81 47 Z " /><path fill="rgb(230,232,230)" stroke="rgb(230,232,230)" stroke-width="1" opacity="1" d="M 247.5 47 Q 252.3 45.7 251 49 Q 247.2 49.8 247.5 47 Z " /><path fill="rgb(230,232,230)" stroke="rgb(230,232,230)" stroke-width="1" opacity="1" d="M 355.5 50 L 359 50.5 L 358.5 52 Q 360.8 51.3 360 53.5 L 360 55.5 L 361.5 58 L 363 57.5 L 362 53 L 364.5 52 L 369.5 54 L 372 53 Q 370.8 56 374.5 55 L 374.5 57 L 381 55.5 L 380.5 54 Q 384.5 55.7 383 62 L 357.5 62 L 356.5 61 L 355 61.5 L 356 55.5 L 356 53.5 L 355.5 50 Z M 360 57 L 358 59 L 360 59 L 360 57 Z " /><path fill="rgb(230,232,230)" stroke="rgb(230,232,230)" stroke-width="1" opacity="1" d="M 22 51 Q 25.8 50 27 52.5 L 25 52.5 L 27 55.5 L 27 57.5 L 26 59.5 L 27.5 60 L 29 56.5 L 28 54 L 31.5 53 L 38.5 55 L 40 54.5 L 39.5 56 L 44 57 L 43 54.5 Q 44.3 51.8 45.5 54 L 48.5 56 L 51 61.5 L 22.5 62 L 21.5 60 L 25 59.5 L 22 58.5 L 22 54.5 L 22 51 Z " /><path fill="rgb(230,232,230)" stroke="rgb(230,232,230)" stroke-width="1" opacity="1" d="M 189 51 L 193 51 L 193 52.5 L 192.5 54 L 194 54.5 L 193 56.5 L 195.5 58 L 195 56.5 L 195.5 52 L 199.5 53 L 201 52.5 Q 200.2 55.1 203.5 54 L 205.5 54 L 207 54.5 L 205.5 57 L 207.5 56 L 209 56.5 L 210.5 53 L 211.5 55 L 210 55.5 L 217 56.5 L 217 58.5 L 216 60.5 L 218 61.5 L 190.5 62 L 188 61.5 Q 187.2 58.9 190.5 60 L 190.5 59 L 189 58.5 L 189 51 Z M 192 58 L 192 60 L 194 59 L 192 58 Z " /><path fill="rgb(230,232,230)" stroke="rgb(230,232,230)" stroke-width="1" opacity="1" d="M 471.5 52 L 474 53.5 L 472 54 L 472 56 Q 474.7 54.9 474 57.5 L 475.5 57 Q 478.1 56.3 477 59 L 472.5 58 L 470 59 Q 468.6 62.7 474.5 61 L 474.5 62 L 464 61.5 L 466.5 60 L 468.5 61 L 467.5 59 L 466 58.5 Q 467.4 55.9 472 56.5 L 467 55.5 L 471 54.5 Q 468.8 53.2 471.5 52 Z " /><path fill="rgb(230,232,230)" stroke="rgb(230,232,230)" stroke-width="1" opacity="1" d="M 134 53 L 137.5 54 L 140 53 Q 138.9 55.7 141.5 55 L 144 56.5 L 141.5 57 L 138.5 55 L 141.5 59 L 143.5 58 L 142.5 60 L 137.5 60 Q 138.1 62.8 135 62 L 134.5 60 Q 133 63.5 131.5 61 L 130 60.5 L 133 56.5 L 132.5 55 L 136.5 58 L 137 54 L 134.5 55 L 134 53 Z " /><path fill="rgb(230,232,230)" stroke="rgb(230,232,230)" stroke-width="1" opacity="1" d="M 305 53 L 307 53.5 L 306.5 56 L 305 53 Z " /><path fill="rgb(230,232,230)" stroke="rgb(230,232,230)" stroke-width="1" opacity="1" d="M 298.5 55 L 299.5 57 L 302 55.5 L 301.5 57 L 306 57.5 Q 301.8 59.8 303.5 62 Q 296.6 64 298 60 L 300 59.5 L 298.5 55 Z " /><path fill="rgb(230,232,230)" stroke="rgb(230,232,230)" stroke-width="1" opacity="1" d="M 310.5 56 L 310 57.5 L 308 62 L 305 61.5 L 307 61 L 310.5 56 Z " /><path fill="rgb(230,232,230)" stroke="rgb(230,232,230)" stroke-width="1" opacity="1" d="M 62.5 57 L 68.5 59 L 72 58 Q 70.7 61.7 76.5 60 L 78 59.5 Q 78.6 62.3 72.5 61 L 69.5 62 L 61.5 62 L 60 60.5 L 65 59.5 L 61 58.5 L 62.5 57 Z " /><path fill="rgb(230,232,230)" stroke="rgb(230,232,230)" stroke-width="1" opacity="1" d="M 229.5 57 L 231.5 58 Q 233 55.5 234.5 59 L 238.5 58 L 239.5 60 L 241.5 60 L 249 61.5 L 243.5 62 L 239.5 61 L 238.5 62 L 227 62 L 226 59.5 L 229.5 57 Z " /><path fill="rgb(230,232,230)" stroke="rgb(230,232,230)" stroke-width="1" opacity="1" d="M 395.5 57 L 400.5 58 L 402 57.5 Q 401.5 60.5 408.5 59 L 412 61.5 L 394.5 62 L 392.5 62 L 391 61.5 L 394 59.5 L 395.5 57 Z " /><path fill="rgb(230,232,230)" stroke="rgb(230,232,230)" stroke-width="1" opacity="1" d="M 403.5 57 L 406 57.5 L 403.5 58 L 403.5 57 Z " /><path fill="rgb(230,232,230)" stroke="rgb(230,232,230)" stroke-width="1" opacity="1" d="M 460.5 61 L 463 61.5 L 460.5 62 L 460.5 61 Z " /><path fill="rgb(0,0,0)" stroke="rgb(0,0,0)" stroke-width="1" opacity="1" d="M 479.5 0 L 499 0 L 499 16.5 L 497.5 16 L 495.5 17 L 491.5 15 L 488.5 16 L 484 13.5 L 483.5 12 L 480.5 13 L 479.5 11 L 482.5 12 L 484 8.5 L 482 5.5 L 482.5 4 L 480 2.5 L 482 2.5 Q 482.8 -0.1 479.5 1 L 479.5 0 Z " /><path fill="rgb(0,0,0)" stroke="rgb(0,0,0)" stroke-width="1" opacity="1" d="M 150.5 1 L 166 1 L 166 18.5 L 164.5 18 L 159.5 16 L 157.5 16 Q 152.2 16.7 151.5 13 L 150 13.5 L 149 10.5 L 150 8.5 L 148 8.5 L 149 5.5 L 149 3.5 L 150.5 1 Z " /><path fill="rgb(0,0,0)" stroke="rgb(0,0,0)" stroke-width="1" opacity="1" d="M 316.5 1 L 318.5 1 L 332.5 1 L 333 3.5 L 333 5.5 L 333 13.5 L 332 14.5 L 333 17 L 327.5 18 L 325.5 15 L 324.5 17 L 323.5 15 L 321.5 16 L 318 14.5 L 318.5 13 L 316 12.5 L 317 9.5 L 316.5 8 L 314.5 9 L 316 6.5 L 314.5 4 L 313 3.5 L 316 3 L 316.5 1 Z " /><path fill="rgb(0,0,0)" stroke="rgb(0,0,0)" stroke-width="1" opacity="1" d="M 313.5 12 L 315 12.5 L 312.5 14 L 313.5 12 Z " /><path fill="rgb(0,0,0)" stroke="rgb(0,0,0)" stroke-width="1" opacity="1" d="M 460.5 13 L 463 14 L 464 16.5 L 462 20.5 L 464.5 26 Q 465.8 23.7 467 26.5 L 466 29 L 462.5 28 L 461 30.5 Q 462.3 33.3 463.5 31 L 466 32.5 L 456.5 34 L 453 31.5 L 454 28.5 L 454 26.5 Q 453.3 24.3 455.5 25 L 455 23.5 L 460.5 13 Z " /><path fill="rgb(0,0,0)" stroke="rgb(0,0,0)" stroke-width="1" opacity="1" d="M 126 14 L 130 15.5 L 129 21.5 L 129 23.5 L 132.5 27 L 134 26.5 L 133.5 29 L 130.5 28 L 127 28.5 L 128 32 L 130.5 33 L 132.5 32 L 132.5 33 L 129.5 34 L 127.5 34 L 122.5 35 L 120 31.5 L 120 29.5 L 122 25.5 L 122 23.5 L 126 14 Z " /><path fill="rgb(0,0,0)" stroke="rgb(0,0,0)" stroke-width="1" opacity="1" d="M 292 14 Q 295.8 13 297 15.5 Q 297.8 19.8 295 20.5 L 297 25 L 300 26.5 L 299.5 29 L 295 28 Q 293.5 31.7 296.5 31 L 297.5 33 Q 294.3 35.3 287.5 34 L 286 32.5 L 287.5 30 L 286 29.5 L 290 19 L 292 19 L 292 14 Z " /><path fill="rgb(0,0,0)" stroke="rgb(0,0,0)" stroke-width="1" opacity="1" d="M 493.5 17 L 494.5 19 L 493.5 17 Z " /><path fill="rgb(0,0,0)" stroke="rgb(0,0,0)" stroke-width="1" opacity="1" d="M 350.5 19 L 352 21.5 L 350 20.5 L 350.5 19 Z " /><path fill="rgb(0,0,0)" stroke="rgb(0,0,0)" stroke-width="1" opacity="1" d="M 182.5 20 L 181.5 22 L 182.5 20 Z " /><path fill="rgb(0,0,0)" stroke="rgb(0,0,0)" stroke-width="1" opacity="1" d="M 184.5 20 L 185.5 22 L 184.5 20 Z " /><path fill="rgb(0,0,0)" stroke="rgb(0,0,0)" stroke-width="1" opacity="1" d="M 18.5 22 L 22.5 24 L 24.5 23 L 24.5 24 Q 22.3 23.3 23 25.5 L 21.5 25 L 20 25.5 L 21 30.5 L 20 37 L 16.5 35 L 15 38 L 11 37.5 L 13 37 L 12 29.5 L 13.5 27 L 11 25.5 L 13 25.5 L 13.5 23 Q 16.3 24.4 15 29 L 18 27.5 L 19 23.5 L 18.5 22 Z " /><path fill="rgb(0,0,0)" stroke="rgb(0,0,0)" stroke-width="1" opacity="1" d="M 188.5 22 L 188.5 24 L 190 24.5 L 187 25.5 L 188 29.5 L 185 30.5 L 187 31 Q 188.3 36.5 184.5 38 L 180 37.5 L 185 36.5 L 182 35.5 L 181.5 33 L 180.5 36 L 178 30.5 L 180 25.5 Q 177.8 24.3 180.5 23 L 182 26.5 L 181.5 28 L 183 28.5 L 182.5 30 Q 184.8 30.8 184 28.5 L 185 26.5 L 185 24.5 Q 184.2 21.9 187.5 23 L 188.5 22 Z " /><path fill="rgb(0,0,0)" stroke="rgb(0,0,0)" stroke-width="1" opacity="1" d="M 352.5 23 L 357 23.5 L 356.5 26 Q 353.2 24.9 354 27.5 L 354 33.5 Q 353.2 36.1 356.5 35 L 357.5 37 L 351.5 34 L 348 35.5 L 348.5 37 L 346 36.5 L 347 32.5 L 345 28.5 Q 348.5 27 346 25.5 Q 345.3 23.3 347.5 24 Q 350.3 25.3 348 26.5 Q 346.9 30.7 351 29 Q 349.8 24.4 352.5 23 Z " /><path fill="rgb(0,0,0)" stroke="rgb(0,0,0)" stroke-width="1" opacity="1" d="M 136.5 26 L 135.5 28 L 136.5 26 Z " /><path fill="rgb(0,0,0)" stroke="rgb(0,0,0)" stroke-width="1" opacity="1" d="M 301.5 26 L 304 26.5 L 301 28 L 301.5 26 Z " /><path fill="rgb(0,0,0)" stroke="rgb(0,0,0)" stroke-width="1" opacity="1" d="M 150.5 29 L 159 32 L 157.5 36 L 153 35 Q 153.8 39.5 151 41.5 L 152.5 42 L 154.5 41 L 155.5 43 L 153 44.5 L 152 47.5 L 153 49.5 L 152 49.5 Q 152.8 46.9 149.5 48 L 149.5 47 L 151 46.5 L 147.5 46 L 146 46.5 L 145.5 45 L 143.5 46 L 139.5 44 L 135.5 46 L 134 45.5 L 134.5 44 L 129.5 45 L 129.5 43 Q 124 44.5 122.5 42 L 120.5 43 L 115 40.5 L 118.5 39 L 120.5 39 L 124.5 40 L 124.5 38 L 130.5 39 Q 131.8 36.8 136.5 38 L 138.5 36 L 141 37 L 144 32.5 L 142 31.5 L 144.5 30 L 146.5 30 L 150.5 29 Z " /><path fill="rgb(0,0,0)" stroke="rgb(0,0,0)" stroke-width="1" opacity="1" d="M 316.5 29 L 326 32 Q 327.3 35 323.5 34 L 321.5 34 Q 318.5 33.1 320 37.5 L 317 41.5 L 319.5 42 L 321 41.5 L 320 45 L 318 45.5 L 320 46.5 L 318 47.5 L 316.5 45 L 314 45.5 L 317 47.5 L 315.5 48 L 311.5 45 L 309.5 46 L 302.5 44 Q 301 46.5 299.5 43 L 294.5 44 L 288.5 41 L 286.5 41 L 281 39.5 L 283.5 39 L 285.5 39 L 288.5 38 L 291.5 40 L 303.5 36 L 305 36.5 L 305.5 35 L 306 37 Q 308.7 38.1 308 35.5 L 307 34.5 L 308.5 32 L 307 31.5 L 308.5 31 Q 310 33.5 311.5 30 L 313.5 31 L 316.5 29 Z " /><path fill="rgb(0,0,0)" stroke="rgb(0,0,0)" stroke-width="1" opacity="1" d="M 481.5 29 L 492 31 Q 494.1 36.2 489.5 35 L 487 34 L 484 42 L 487 42.5 L 485 44.5 Q 488.1 46.3 486.5 48 L 488 48.5 L 486.5 49 L 483.5 48 L 482 47.5 L 485 45.5 L 476.5 45 L 475.5 46 L 470.5 43 L 468.5 45 L 466 44.5 L 466.5 43 L 464.5 44 L 460 43.5 L 460.5 42 L 455.5 41 L 453.5 41 Q 449.8 41.8 449 39.5 L 451.5 38 L 453 38.5 L 453.5 37 L 454.5 39 L 456.5 39 L 469.5 37 L 471.5 35 Q 473.3 38.8 475 35.5 L 473.5 33 Q 476.8 34.1 476 31.5 L 479.5 30 L 481.5 29 Z " /><path fill="rgb(0,0,0)" stroke="rgb(0,0,0)" stroke-width="1" opacity="1" d="M 427.5 31 L 428.5 33 L 427.5 31 Z " /><path fill="rgb(0,0,0)" stroke="rgb(0,0,0)" stroke-width="1" opacity="1" d="M 300.5 32 L 304 32.5 L 300.5 33 L 300.5 32 Z " /><path fill="rgb(0,0,0)" stroke="rgb(0,0,0)" stroke-width="1" opacity="1" d="M 189.5 33 L 190 35 Q 192.7 33.9 192 36.5 L 189 34.5 L 189.5 33 Z " /><path fill="rgb(0,0,0)" stroke="rgb(0,0,0)" stroke-width="1" opacity="1" d="M 470.5 33 L 469.5 35 L 470.5 33 Z " /><path fill="rgb(0,0,0)" stroke="rgb(0,0,0)" stroke-width="1" opacity="1" d="M 136.5 34 L 138 34.5 L 135.5 36 L 136.5 34 Z " /><path fill="rgb(0,0,0)" stroke="rgb(0,0,0)" stroke-width="1" opacity="1" d="M 22 35 Q 25.8 33.5 25 36.5 L 23 36.5 L 22.5 38 L 22 35 Z " /><path fill="rgb(0,0,0)" stroke="rgb(0,0,0)" stroke-width="1" opacity="1" d="M 35.5 37 L 39 37.5 L 35.5 38 L 35.5 37 Z " /><path fill="rgb(0,0,0)" stroke="rgb(0,0,0)" stroke-width="1" opacity="1" d="M 323 41 L 326 42.5 L 323 43 L 323 41 Z " /><path fill="rgb(0,0,0)" stroke="rgb(0,0,0)" stroke-width="1" opacity="1" d="M 489.5 41 Q 491.8 40.3 491 42.5 L 488 42.5 L 489.5 41 Z " /><path fill="rgb(0,0,0)" stroke="rgb(0,0,0)" stroke-width="1" opacity="1" d="M 158.5 42 L 161 42.5 L 158 44 L 158.5 42 Z " /><path fill="rgb(0,0,0)" stroke="rgb(0,0,0)" stroke-width="1" opacity="1" d="M 237.5 44 L 240 45.5 Q 240.8 49.3 238.5 50 L 236.5 47 L 231.5 48 L 232.5 46 L 234.5 47 L 236.5 46 L 238 46.5 L 237.5 44 Z " /><path fill="rgb(0,0,0)" stroke="rgb(0,0,0)" stroke-width="1" opacity="1" d="M 297 44 L 299 44.5 L 297 45.5 L 297 44 Z " /><path fill="rgb(0,0,0)" stroke="rgb(0,0,0)" stroke-width="1" opacity="1" d="M 404.5 44 L 411 47.5 L 407.5 48 L 406 47.5 L 405.5 50 L 404 47 L 401 46.5 L 404 46 L 404.5 44 Z " /><path fill="rgb(0,0,0)" stroke="rgb(0,0,0)" stroke-width="1" opacity="1" d="M 70.5 45 L 74 46.5 L 72 47 L 71.5 50 L 67 47.5 L 70.5 45 Z " /><path fill="rgb(0,0,0)" stroke="rgb(0,0,0)" stroke-width="1" opacity="1" d="M 243.5 46 Q 246.5 47.5 243.5 49 L 241 47.5 L 243.5 46 Z " /><path fill="rgb(0,0,0)" stroke="rgb(0,0,0)" stroke-width="1" opacity="1" d="M 300.5 46 L 299.5 48 L 300.5 46 Z " /><path fill="rgb(0,0,0)" stroke="rgb(0,0,0)" stroke-width="1" opacity="1" d="M 478.5 46 Q 480.8 45.3 480 47.5 L 478.5 46 Z " /><path fill="rgb(0,0,0)" stroke="rgb(0,0,0)" stroke-width="1" opacity="1" d="M 75.5 47 L 76 49.5 L 74 48.5 L 75.5 47 Z " /><path fill="rgb(0,0,0)" stroke="rgb(0,0,0)" stroke-width="1" opacity="1" d="M 292.5 47 L 295 47.5 L 293.5 52 Q 290.8 50.8 293 49.5 L 292.5 47 Z " /><path fill="rgb(0,0,0)" stroke="rgb(0,0,0)" stroke-width="1" opacity="1" d="M 127.5 48 L 127 49.5 Q 127.8 51.8 125.5 51 L 127.5 48 Z " /><path fill="rgb(0,0,0)" stroke="rgb(0,0,0)" stroke-width="1" opacity="1" d="M 480.5 50 L 483 50.5 L 480.5 51 L 480.5 50 Z " /><path fill="rgb(0,0,0)" stroke="rgb(0,0,0)" stroke-width="1" opacity="1" d="M 460.5 51 L 461.5 53 L 458.5 54 L 458 52 L 460.5 51 Z " /><path fill="rgb(0,0,0)" stroke="rgb(0,0,0)" stroke-width="1" opacity="1" d="M 127.5 52 L 128 54.5 L 126.5 56 L 126 53.5 L 127.5 52 Z " /><path fill="rgb(0,0,0)" stroke="rgb(0,0,0)" stroke-width="1" opacity="1" d="M 291.5 53 L 294 53.5 L 291.5 54 L 291.5 53 Z " /><path fill="rgb(0,0,0)" stroke="rgb(0,0,0)" stroke-width="1" opacity="1" d="M 291.5 55 L 295 55.5 L 291.5 56 L 291.5 55 Z " /><path fill="rgb(0,0,0)" stroke="rgb(0,0,0)" stroke-width="1" opacity="1" d="M 459.5 55 L 459 56.5 L 458.5 58 L 458 56.5 L 459.5 55 Z " /><path fill="rgb(0,0,0)" stroke="rgb(0,0,0)" stroke-width="1" opacity="1" d="M 126.5 57 L 125.5 59 L 123 58.5 L 126.5 57 Z " /><path fill="rgb(0,0,0)" stroke="rgb(0,0,0)" stroke-width="1" opacity="1" d="M 0 62 L 499.5 62 L 500 62.5 L 500 186 L 0.5 186 L 0 185.5 L 0 62 Z " /></svg>